<?xml version="1.0" standalone="no"?><!DOCTYPE svg PUBLIC "-//W3C//DTD SVG 1.1//EN" "http://www.w3.org/Graphics/SVG/1.1/DTD/svg11.dtd"><svg t="1549611361296" class="icon" style="" viewBox="0 0 1024 1024" version="1.1" xmlns="http://www.w3.org/2000/svg" p-id="3480" xmlns:xlink="http://www.w3.org/1999/xlink" width="200" height="200"><defs><style type="text/css"></style></defs><path d="M255.68431 345.039407c-43.667545-27.807323-96.973612-37.994336-147.282415-24.672936-0.674359 0.178055-1.107217 0.554632-1.416256 0.994654-0.058328-0.36532-0.106424-0.732687-0.167822-1.098008-0.545422-3.269463-5.412266-2.286066-5.551436 0.751107-0.797156 17.372669-0.916882 34.742269-0.608867 52.107775-4.689812 93.02365 0.703011 186.206936 6.325056 279.145651 0.143263 2.372024 2.482541 3.230578 4.14746 2.559289 0.414439 0.829901 1.159406 1.335415 1.968841 1.576915-0.981351 2.299369 0.402159 5.305843 2.670829 8.135284-1.428535-0.12996-2.951215 0.576121-3.474125 2.270716-6.15314 19.923772 13.57211 29.250184 30.066783 31.371498 27.119661 3.489474 56.18872 5.214768 83.155908-0.210801 49.526997-9.965979 82.862219-53.043077 101.695147-97.442286C365.868805 509.391593 341.240895 399.521253 255.68431 345.039407zM322.775334 516.628414c-3.193739-44.158732-20.418029-86.25141-50.459229-118.362758 8.972349 7.302313 17.388019 15.312754 25.086351 24.015973 12.45466 18.910699 21.893636 39.965224 27.548426 62.576197 0.016373 2.306532 0.051165 4.608971-0.020466 6.934946C324.673567 500.109182 323.897901 508.390799 322.775334 516.628414zM303.21279 418.247756c-11.470239-17.913998-25.266453-34.013675-40.768519-47.165206-18.121729-15.374152-38.610366-27.398-60.44772-35.95591 18.924002 5.02034 37.161365 12.363585 53.948703 22.600741 30.952966 18.876929 51.450812 46.554292 61.597917 78.724992C313.090764 430.111968 308.300668 424.039669 303.21279 418.247756zM160.217005 320.978409c13.317307 0.744967 26.535353 2.957355 39.393195 6.54609C186.686866 324.358389 173.4811 322.218656 160.217005 320.978409zM119.477139 326.557474c55.07434-0.146333 106.597807 21.401426 145.026024 56.975643-15.943111-11.239995-33.331129-20.385283-51.618635-27.167756-29.609365-12.976546-62.184271-17.919115-94.357018-13.473873-0.541329-5.862521-1.063215-11.727089-1.636267-17.585517C117.430526 326.037634 118.269637 326.560544 119.477139 326.557474zM206.863395 361.637434c53.773717 22.935362 95.517447 73.03541 106.472963 133.11167 3.469008 19.020192 4.122901 38.759769 2.095731 58.251705-1.889023 7.137561-3.986801 14.216793-6.269797 21.215184-8.315386 25.495674-19.207457 52.185546-40.056298 70.090335-21.957081 18.856463-51.305503 23.474644-79.362512 21.788236-12.529361-0.753153-24.965601-2.713808-37.256532-5.214768-6.312776-1.284249-12.592806-2.734274-18.851347-4.261047-0.99977-0.243547-2.148943-0.629333-3.366677-1.057075 2.252297-18.174941 0.765433-37.264719 0.692778-55.07741-0.12689-31.17093-0.750083-62.339814-1.822508-93.492324-0.528026-15.350616-1.194198-30.694069-1.989307-46.030359-0.353041-16.58677-0.952698-33.172517-1.703805-49.756217 1.493004-0.712221 2.535753-2.436492 1.484817-4.300956-0.732687-3.814886-1.464351-7.629771-2.197038-11.444657-0.081864-1.545192-0.924045-2.488681-1.968841-2.857071-1.073448-14.115486-2.279926-28.220738-3.548826-42.320874C149.135622 347.726609 179.017186 351.86486 206.863395 361.637434zM185.238888 678.180833c-16.21531-3.342118-32.43062-6.683213-48.644907-10.025331-3.254114-0.670266-5.731538-0.937348-8.102538-2.172479 0.25071-1.13894 0.474814-2.285043 0.686638-3.434216 0.106424 0.030699 0.217964 0.067538 0.318248 0.093121 6.233981 1.582031 12.487406 3.072989 18.777669 4.41352 12.115945 2.582825 24.369014 4.656043 36.718273 5.728468 13.96506 1.213641 27.446096 0.633427 40.158628-1.790786-7.475252 2.538823-15.376199 5.001921-23.364127 7.208169C196.279339 678.444846 190.745299 678.42745 185.238888 678.180833zM122.781394 647.932925c1.071402-15.789615 1.919722-31.585369 2.63706-47.384194 0.551562 17.36039 1.584078 35.82902-0.63138 53.182246-0.561795-0.161682-1.113357-0.296759-1.662873-0.418532L122.781394 647.932925zM123.793444 680.202886c0.329505-0.313132 0.626263-0.682545 0.819668-1.179872 0.77055-1.978051 1.431605-3.989871 2.045589-6.01704 0.635473 0.226151 1.299599 0.415462 1.945305 0.629333 0.358157 0.685615 0.967024 1.2689 1.914606 1.567705 6.247284 1.964748 12.707416 3.629667 19.281135 5.037736 7.093559 1.736551 14.2127 3.344165 21.358447 4.813632C150.35745 688.397522 132.253116 688.027086 123.793444 680.202886zM270.297123 651.994428c-1.119497 0.708128-2.569522 1.52268-4.279467 2.411933 10.386558-7.106862 19.568684-16.341177 27.258831-27.812439-1.457188 2.720971-2.976798 5.406127-4.569062 8.045233-1.650593 2.736321-3.455705 5.293563-5.355985 7.736195C279.255145 645.789099 274.956236 649.045259 270.297123 651.994428zM320.121901 568.317657c0.213871-1.218758 0.384763-2.439562 0.577145-3.660366 4.596691-15.422248 7.878434-31.335682 9.620102-47.303352 2.951215 36.148291-4.806469 72.476685-24.879644 101.106746C312.661999 602.032526 317.307809 584.328305 320.121901 568.317657zM331.545068 482.428497c-0.280386-6.620791-0.871857-13.187347-1.782599-19.674085 1.348718-0.947582 2.152013-2.706645 1.155313-4.574179-0.876973-1.642406-1.804089-3.25002-2.721994-4.864798-1.059122-5.501294-2.371-10.923794-3.934612-16.256242 10.914584 27.115568 15.325034 56.645115 13.805424 86.008886C337.318562 509.441735 335.088778 495.803109 331.545068 482.428497zM109.824291 325.528028c1.031493-0.25378 2.069125-0.454348 3.102664-0.687662 0.528026 6.230911 0.989537 12.467963 1.478677 18.701944-1.464351 0.239454-2.930749 0.455371-4.393054 0.733711-0.192382-1.837858-0.376577-3.676739-0.591471-5.511527 0.052189-3.246951 0.102331-6.494924 0.155543-9.741875 0.024559-1.481747-0.796132-2.365884-1.831718-2.695389-0.065492-0.437975-0.1361-0.87595-0.200568-1.313925C108.11537 325.496306 108.880803 325.760319 109.824291 325.528028zM110.682845 351.159802c0.037862-0.00307 0.066515 0.014326 0.105401 0.010233 1.394766-0.178055 2.790556-0.300852 4.185322-0.449231 1.187035 15.575744 2.303462 31.156604 3.297093 46.746674-0.109494 2.01796 0.002047 3.773953 0.360204 5.468548 0.095167 1.528819 0.209778 3.056616 0.302899 4.584412 2.629897 61.280692 2.739391 122.638131 0.242524 183.91166-1.694595-26.567076-3.390213-53.136198-5.084808-79.703273-0.509606-10.265808-0.980327-20.533662-1.433652-30.801517l0-0.051165C112.627127 437.890118 114.540709 394.162198 110.682845 351.159802zM158.27784 693.458795c10.380418-0.89437 21.067828-2.944052 30.405497-5.072529 8.931416 1.561565 17.898649 2.933819 26.904767 4.099365-3.675716 0.543376-7.4159 0.944512-11.222599 1.201361C196.594517 694.213995 176.909176 695.185112 158.27784 693.458795zM281.130865 659.068544c-14.011108 14.69263-30.309306 24.320918-48.557926 29.692253-0.39295-0.564865-0.947582-1.020236-1.755993-1.187035-6.063089-1.249457-12.126178-2.498914-18.189268-3.749394 16.797571-1.860371 33.160237-6.189979 48.087205-13.525038 11.641131-5.720282 21.221324-14.413268 29.112038-24.790616 3.40147-2.860141 6.66991-5.886057 9.780761-9.095145C294.007127 644.412752 287.86115 652.011824 281.130865 659.068544z" p-id="3481"></path><path d="M618.365516 494.351038c-5.931083-31.819706-12.488429-63.527872-19.71911-95.078449-2.473331-10.788717-5.060249-21.551852-7.694239-32.302707-1.705851-15.683191-3.403516-31.367405-5.116531-47.050596-0.254803-2.333138-3.929496-2.384303-3.701299 0 0.442068 4.615111 0.8913 9.228175 1.334391 13.843286-1.239224-3.860934-3.013637-7.04444-5.792936-8.001231-1.093914-0.376577-2.481518 0.245593-3.031033 1.234107-0.2415 0.433882-0.483001 0.867764-0.724501 1.301645-0.560772 1.007957-0.405229 2.276856 0.401136 3.104711 0.230244 0.237407 0.462534 0.474814 0.692778 0.712221 0.544399 0.559748 1.162476 0.76441 1.759063 0.750083-0.62217 2.659573-0.339738 5.368264 0.87288 8.129144 0.964978 3.803629 1.921769 7.609305 2.869351 11.416004 1.89414 7.615445 3.751441 15.240099 5.570879 22.873963 0.822738 3.450589 1.576915 6.91755 2.385327 10.371208 1.243317 12.881378 2.485611 25.762757 3.737114 38.643112-6.895037-33.549094-13.760398-67.104327-20.572548-100.668771 3.328815-1.183965 2.347464-6.513344-1.299599-6.567579l-0.039909-0.001023c-0.210801-1.037632-0.424672-2.074242-0.63445-3.111874-0.627287-3.093455-5.483898-2.730181-6.002714 0.046049-0.523933-0.503467-1.26276-0.825808-2.25025-0.798179-4.922103 0.134053-9.843182 0.26913-14.764262 0.403183 0.951675-0.085958 1.90335-0.168846 2.855024-0.255827 4.066619-0.370437 4.119831-6.758937 0-6.405897-25.367761 2.178619-50.728358 4.428869-76.092026 6.647397-3.926426-1.186012-7.837502-2.479471-11.721973-3.922333-1.623987-0.603751-3.919263 0.682545-4.220115 2.39556-1.565658 8.93551-3.12927 17.872043-4.694929 26.807552-1.678222-0.531096-3.977591 0.388856-4.208858 2.704598-1.450025 14.559601-2.8847 29.121248-4.326539 43.681872-0.37453 2.921539-0.750083 5.843078-1.12359 8.764618-6.318916 36.081777-12.638855 72.16253-18.957771 108.244306-6.135744 35.036981-12.414751 70.101591-16.944927 105.364723-5.255701 26.081005-10.502192 52.113915-15.424294 78.094636-0.414439 2.189875 0.916882 3.977591 3.15383 4.140297 4.036943 0.293689 7.236821-0.683569 9.853415-2.448772 0.299829-0.025583 0.589424-0.091074 0.865717-0.188288 4.190439 1.006933 8.395204 1.787716 12.613272 2.356674-4.79112-0.232291-9.589402-0.459464-14.409175-0.649799-1.662873-0.065492-2.059915 2.586918-0.397043 2.935865 3.527336 0.740874 7.086395 1.363044 10.660804 1.915629-4.807493 0.647753-9.613962 1.302669-14.446014 1.834788-4.101411 0.451278-4.211928 6.138814 0 6.467295 27.950586 2.180666 55.722092 0.505513 83.083254-5.67321 1.255597-0.283456 1.89414-1.264806 2.028193-2.336208 0.680499-0.073678 1.314948-0.545422 1.240247-1.346671-0.154519-1.64036-0.157589-3.347235-0.052189-5.097088 3.140527-0.022513 3.928472-5.293563 0.724501-5.842055 1.788739-10.085706 6.166443-20.965497 8.463766-29.617551 2.328022-8.767688 4.644787-17.537422 6.962575-26.307156 11.805884 0.079818 23.485901-2.567475 34.289967-8.126075 1.101077 16.931624 2.938935 33.838689 6.088672 50.513464 1.143033 6.04774 2.372024 12.261255 5.282307 17.146519 0.246617 1.567705 0.49221 3.13541 0.738827 4.704139 0.410346 2.613524 3.631714 2.940982 5.423523 1.617847 1.364067 0.826831 2.885723 1.521656 4.640694 2.01796 2.357697 0.666172 4.554736-1.593288 3.927449-3.927449-3.63069-13.491269-6.977925-27.056216-10.638291-40.540322-0.038886-0.14224-0.079818-0.283456-0.11768-0.425695-0.548492-6.556323-1.098008-13.113669-1.648546-19.669992 1.074472 3.374864 2.119267 6.757914 3.127224 10.152221 2.156106 10.469446 4.718465 20.845771 7.677866 31.142278 2.13257 8.280594 4.430916 16.525372 6.874571 24.741497-2.62785 0.231267-5.256724 0.462534-7.884574 0.693802-0.045025-0.00614-0.089028-0.010233-0.134053-0.016373-0.237407-0.316202-0.598634-0.552585-1.100054-0.591471-2.76395-0.297782-5.526877-0.595564-8.290827-0.893346-1.685385-0.237407-2.75781 1.307785-2.549056 2.563382-0.201591 0.017396-0.403183 0.034792-0.603751 0.053212-4.204765 0.370437-4.281513 6.331195 0 6.598278 25.75764 1.601474 51.386344 1.186012 77.081563-1.210571 3.084245-0.305969 3.768837-4.122901 2.015913-5.625114 3.668553-0.317225 7.338129-0.633427 11.007705-0.951675 4.315282-0.372483 4.360308-6.424316 0-6.745634-0.276293-0.020466-0.553609-0.039909-0.829901-0.060375 0.207731-0.062422 0.416486-0.122797 0.624217-0.185218 1.071402-0.324388 1.806135-1.197268 2.146896-2.197038 0.11461 0.558725 0.227174 1.116427 0.340761 1.675152 0.760317 3.716648 7.115048 2.949168 6.709819-0.907673C639.531582 622.721731 630.28601 558.302559 618.365516 494.351038zM401.095098 678.347632c-0.423649 0.010233-0.848321 0.017396-1.270946 0.027629 0.539282-2.841721 1.077541-5.682419 1.62501-8.525164C401.304875 672.679539 401.202545 675.514097 401.095098 678.347632zM414.58125 603.230818c1.838881-9.231245 3.670599-18.46863 5.492084-27.712155-0.328481 2.608407-0.660032 5.216815-0.988514 7.825222-2.208295 12.69002-4.459568 25.371854-6.750751 38.044478C413.030941 615.329367 413.774885 609.276511 414.58125 603.230818zM481.986429 690.678472c-5.110391 0.264013-10.1952 0.36839-15.269775 0.405229 4.412496-0.970094 8.828063-1.914606 13.226233-2.983961 0.517793-0.125867 0.920976-0.382717 1.263783-0.694825 0.515746 0.028653 1.031493 0.057305 1.547239 0.085958 0.024559 1.11438 0.118704 2.227738 0.251733 3.342118C482.69865 690.726567 482.364029 690.659029 481.986429 690.678472zM484.787218 658.760528c0.322341-4.496407 0.693802-8.988722 1.152243-13.470803 0.017396 1.824555 0.004093 3.651157 0.030699 5.475711 0.01228 0.827855 0.315178 1.468444 0.760317 1.951445C486.081701 654.731772 485.434971 656.746662 484.787218 658.760528zM492.053716 636.254955c0.010233-3.704368 0-7.408737 0-11.113105 1.158383 0.156566 2.315742 0.287549 3.476171 0.39295C494.372527 629.108185 493.210052 632.680547 492.053716 636.254955zM503.771595 619.657952c0.198521-0.751107 0.398066-1.50119 0.596588-2.252297 0.110517-0.019443 0.221034-0.038886 0.332575-0.058328 5.414313 0.056282 10.834766 0.024559 16.254196-0.039909C515.269463 618.767676 509.547135 619.564831 503.771595 619.657952zM574.59871 694.616154c-0.322341-1.220804-0.689708-2.440585-0.974188-3.664459 0.228197 0.065492 0.437975 0.160659 0.691755 0.180102 7.188726 0.537236 14.377452 1.073448 21.566178 1.610684C588.788897 693.367721 581.693292 693.991937 574.59871 694.616154zM618.751303 687.73135c-4.718465-0.345877-9.435906-0.690732-14.153348-1.036609 5.439896-0.222057 10.892071-0.115634 16.369829 0.311085C620.228957 687.252443 619.488083 687.48064 618.751303 687.73135zM573.432141 684.59594c-0.38681 0.097214-0.689708 0.265036-0.978281 0.443092-1.106194-6.101975-1.801019-12.264325-2.00261-18.591427-0.067538-2.1295-2.055822-2.904143-3.564175-2.351558-2.072195-8.578376-4.334725-17.095353-6.819313-25.547863-1.683339-7.974625-3.232624-15.980973-4.608971-24.029276-0.373507-2.180666-2.217505-2.714831-3.834328-2.174526-1.25355-3.578502-2.534729-7.14984-3.865028-10.707876-1.236154-3.307326-7.008624-3.198855-6.664793 0.902556 0.098237 1.168616 0.197498 2.338255 0.295735 3.50687-8.885368 0.322341-17.769712 0.680499-26.654057 1.029446-7.556093-0.499373-15.179724-0.181125-22.682605 0.64673-0.001023-1.460258 0-2.920516 0-4.379751-0.001023-3.361561-5.498224-4.354168-6.067182-0.820692-0.276293 1.710968-0.553609 3.421936-0.829901 5.132904-0.056282 0.153496-0.151449 0.25992-0.189312 0.435928-0.50449 2.346441-0.938372 4.702092-1.417279 7.051603-1.550309 0.36839-3.101641 0.725524-4.64888 1.11438-3.077082 0.772596-2.880607 5.167696 0 6.039553 1.010003 0.305969 2.025123 0.579191 3.041266 0.846274-3.621481 18.912745-6.470365 37.934984-8.513908 57.109696-20.422122-2.006703-41.08779-2.399653-61.616336-2.109034 3.355421-7.884574 4.232394-18.062378 5.125741-25.035186 1.99954-15.59621 3.993964-31.193443 5.994528-46.789653-2.13871 23.049972-4.26514 46.100968-6.332219 69.15708-0.183172 2.038426 2.940982 1.991354 3.15997 0 5.888104-53.428863 11.558244-106.881263 17.105586-160.345941 7.313569-48.171116 13.407358-96.508008 17.371646-145.126308 3.066849-17.489326 6.135744-34.976606 9.201569-52.465932 1.360997 0.476861 2.721994 0.954745 4.089132 1.400906 0.502443 0.808412 1.346671 1.432629 2.639107 1.509377 0.294712 0.017396 0.590448 0.027629 0.886183 0.045025 0.480954 0.898463 1.345648 1.590218 2.693342 1.611707 1.623987 0.025583 3.247974 0.061398 4.870938 0.088004 28.172643 7.401574 57.277518 8.374738 86.146009 2.929726 7.487531 61.959144 22.453385 122.743532 35.739992 183.749978 0.146333 1.471514 0.287549 2.943029 0.432859 4.414543 3.140527 31.636534 6.299473 63.271022 9.521864 94.898347 2.493797 24.482601 5.376451 48.856731 12.404518 72.414263C606.28334 679.171394 589.910441 680.456666 573.432141 684.59594zM615.725386 599.557148c-1.13894-10.917654-2.292206-21.834284-3.434216-32.751938 5.843078 31.69384 10.44898 63.566758 12.565177 95.811136C620.204397 641.925095 617.938797 620.777449 615.725386 599.557148zM602.535993 474.451826c-1.809205-16.949021-3.613294-33.898041-5.441942-50.845015 5.892197 26.984584 11.342326 54.06536 16.300244 81.237209 6.051833 33.160237 11.356652 66.445318 15.995299 99.82352C620.445898 561.260937 611.486852 517.856381 602.535993 474.451826zM637.129882 682.456207c-1.64957-0.294712-3.290953-0.5137-4.934382-0.7552-0.512676-15.254425-1.606591-30.420847-3.197832-45.512566 3.190669 15.673981 6.376221 31.348985 9.578146 47.02092C638.205377 682.857343 637.754099 682.567747 637.129882 682.456207z" p-id="3482"></path><path d="M525.397125 428.895257c-0.413416-2.604314-0.849344-5.204535-1.24434-7.810896-0.615007-4.053316-6.194072-32.463366-6.245238-41.192168 0.38067 0.554632 1.02126 0.907673 1.798972 0.644683l1.182942-0.399089c0.703011-0.237407 1.438769-0.952698 1.350764-1.774413-0.287549-2.697435-0.229221-3.089361-2.706645-4.353145-0.769526-0.39295-1.967818-0.416486-2.573615 0.331551-3.258207 4.027733-3.294023 9.134031-2.596128 14.305821-1.178849 0.357134-2.111081 1.347694-2.056845 3.039219 0.183172 5.720282 0.825808 11.365862 1.789763 16.960277 4.51892 40.811498 10.721179 81.388658 18.576077 121.697713-1.105171-0.13917-2.237971-0.279363-3.538593-0.459464-1.714038-0.23843-2.838651 0.913812-3.016707 2.174526-8.5487 0.642636-17.09433 0.851391-25.673729 0.64059 0.092098-0.968048 0.228197-1.90335 0.277316-2.908236 0.078795-1.600451-1.302669-2.557242-2.694365-2.676969 5.2864-50.334385 10.5728-100.667747 15.859199-151.002133 0.230244-2.186805-1.917676-3.345188-3.799536-3.14769-0.348947-3.165086-5.263887-4.288676-5.90857-0.714268-1.880837 10.43056-3.594875 20.883633-5.220908 31.347962-3.968381 23.910573-7.893784 47.828308-11.791557 71.750137-2.721994 16.706497-5.555529 33.398668-8.003278 50.148144-0.910743 6.231935-1.925862 11.530614 3.928472 15.245216 0.403183 0.255827 1.062192 0.285502 1.461281 0l1.672082-1.197268c0.624217-0.446162 0.692778-1.110287 0.450255-1.617847 0.98749 0.497327 2.25332 0.423649 3.27151-0.200568 0.095167 0.14224 0.202615 0.26913 0.325411 0.390903-0.021489 0.204661-0.042979 0.409322-0.064468 0.615007-0.945535 0.149403-1.89107 0.298805-2.836605 0.448208-3.356444 0.530073-2.483564 4.996804 0 5.965875 0.690732 0.26913 1.38658 0.497327 2.081405 0.74292-0.148379 1.403976-0.295735 2.808976-0.444115 4.212952-0.339738 3.223415 4.790096 4.553713 6.154163 1.666966 0.271176-0.573051 0.464581-1.12973 0.714268-1.697665 3.718695-0.019443 7.40976-0.141216 11.056823-0.445138 12.737092 0.980327 25.520233-1.732457 37.147038-8.182356 2.319835-1.287319 1.517563-3.859911-0.289596-4.767584 2.210341-0.865717 2.238994-3.364631 0.963954-4.885264 0.499373-0.381693 0.87595-0.926092 0.982374-1.678222C550.797631 494.373551 534.853497 462.324624 525.397125 428.895257zM485.22724 535.279193c-0.046049 0.857531 0.224104 1.484817 0.6191 1.973958-0.26913-0.063445-0.573051-0.052189-0.900509 0.103354-3.035126 1.446955 1.227967-26.327622 1.583055-28.307719 0.230244-1.286296 0.452301-2.573615 0.679475-3.860934C486.445998 515.209088 485.758336 525.236466 485.22724 535.279193zM533.608134 474.939943c2.667759 9.17701 4.845355 18.415418 5.943362 27.801183C537.451672 493.499647 535.455201 484.234633 533.608134 474.939943zM503.019465 543.017434c6.39771-0.973164 12.795421-1.945305 19.192108-2.917446 4.024663-0.295735 8.04728-0.809435 12.072967-1.468444 0.022513 0.112564 0.042979 0.226151 0.065492 0.337691 0.010233 0.052189 0.042979 0.082888 0.056282 0.13303-4.748141 1.667989-9.55154 3.095501-14.432711 4.158716C514.355651 543.977295 508.682441 543.900547 503.019465 543.017434z" p-id="3483"></path><path d="M271.226285 503.360226c-3.178389-26.52819-21.847587-47.654346-43.745317-61.371766-3.52529-2.208295-37.772278-23.12979-40.782845-9.626241-0.366344-2.809999-0.704035-5.622044-1.112334-8.42795 0-0.004093 0-0.00921 0-0.013303-0.001023 0-0.001023 0-0.001023 0-0.040932-0.278339-0.069585-0.556679-0.110517-0.835018-0.528026-3.595898-6.096858-2.579755-6.16849 0.835018-0.067538 3.252067-0.109494 6.504134-0.166799 9.756201-3.14155 0.685615-3.27458 5.381567-0.11154 6.561439-0.800225 51.768037-0.255827 103.533005 1.588171 155.276483-0.261966 0.799202-0.252757 1.682315 0.089028 2.481518 0.025583 0.696872 0.049119 1.393743 0.075725 2.090615-0.819668 1.188058-0.692778 2.984984 0.152473 4.251837 0.047072 1.209548 0.082888 2.419096 0.130983 3.628644 0.153496 3.876284 5.835915 3.971451 6.141884 0.243547 15.59007 6.9022 33.877575 1.370207 45.702901-11.150968 2.241041-2.372024 4.288676-4.959965 6.183839-7.699356 1.830695-1.720178 3.582595-3.563152 5.202489-5.588275C260.298398 563.765991 274.29825 529.000186 271.226285 503.360226zM194.075137 496.154104c0.562818-9.238408 1.246387-18.472723 2.086521-27.699875 0.692778-6.959505 1.39579-13.916964 2.133593-20.8734 16.138562 6.80601 31.327496 15.417131 41.700751 27.816532 7.468089 11.716856 12.212136 25.470091 13.650905 39.84038-0.180102 13.484106-3.239787 28.693506-7.855922 42.666752-10.470469 16.975627-27.238364 29.889751-46.249347 36.678364-1.832741 0.104377-3.706415 0.101307-5.614881 0.002047C194.939831 561.741891 195.643865 528.900925 194.075137 496.154104zM192.355983 445.161732c-0.014326 0.075725-0.057305 0.127913-0.066515 0.205685-0.473791 3.952009-0.868787 7.909134-1.288343 11.864212-0.499373-4.415566-1.058099-8.828063-1.670036-13.238512C190.341093 444.376856 191.349049 444.767759 192.355983 445.161732zM194.567347 603.517343c0.450255-0.12075 0.902556-0.234337 1.349741-0.36225 4.849448 0.607844 9.695826 0.555655 14.433734-0.101307C205.307969 604.65526 199.974497 604.969415 194.567347 603.517343zM264.047792 521.574053c0.887206-28.438703-14.691607-57.022715-38.659485-72.101131-9.897418-7.53665-21.565155-12.800537-34.631752-14.907525 1.720178-6.29231 24.12035 5.841032 27.541263 7.846712 9.397021 5.510504 18.202571 12.001335 25.7515 19.87977C259.371282 478.280014 268.01208 499.455289 264.047792 521.574053z" p-id="3484"></path><path d="M809.989835 398.606417c-0.613984-2.848884-5.374404-2.26867-5.145184 0.695848-0.016373 0.060375-0.032746 0.119727-0.049119 0.180102-2.798742-8.172123-6.086625-16.110933-9.844206-23.799032 3.226484 5.263887 6.395664 10.574846 9.507538 15.943111 1.747807 3.270487 6.716982 0.36532 4.972245-2.90619-3.667529-6.880711-7.567349-13.626345-11.629875-20.270672-3.632737-6.374174-7.255241-12.754488-10.885931-19.129686-3.493567-6.133697-7.001461-12.259208-10.520611-18.379603-0.599657-1.042749-2.982938-4.426823-5.340635-8.019651 0.302899-0.075725 0.611937-0.12996 0.913812-0.207731 3.034103-0.779759 2.51631-5.973038-0.760317-5.619998-1.193175 0.127913-2.365884 0.234337-3.551896 0.356111-0.662079-1.164522-1.178849-2.191922-1.505283-3.024893 0.604774 0.638543 1.664919 0.784876 2.215458-0.242524 0.151449-0.282433 0.302899-0.564865 0.454348-0.847298 0.323365-0.604774 0.239454-1.328251-0.236384-1.826602-1.25048-1.309832-1.473561-1.49198-3.281743-1.286296-0.706081 0.079818-1.3743 0.446162-1.561565 1.189082-0.491187 1.951445-0.290619 4.125971 0.320295 6.399757-1.011027 0.098237-2.035356 0.210801-3.043313 0.305969 0.443092-1.676176-0.446162-3.744277-2.727111-3.815909-1.11438-0.034792-2.225691-0.089028-3.339048-0.128937 0.476861-2.00875-0.652869-4.51585-3.096525-4.232394-13.370519 1.557472-26.629497 2.016937-39.83424 1.416256-14.21884-1.394766-28.392654-3.26537-42.555212-5.731538-4.033873-0.703011-5.838985 5.301749-1.720178 6.242168 9.009188 2.055822 18.042935 3.561106 27.101241 4.619204-3.264347 0.156566-6.52767 0.332575-9.788947 0.521886-4.718465-0.771573-9.463536-1.690502-14.256702-2.812045-2.591011-0.606821-4.604878 1.588171-4.106528 4.106528 0.811482 4.097318 3.081175 6.66684 6.065136 8.224312 25.897833 52.711526 52.655244 105.138572 90.230024 150.673651 1.511423 1.831718 3.873214 0.696872 4.605901-1.093914 0.405229 0.716314 0.819668 1.426489 1.224898 2.143826 0.093121 5.116531 0.182149 10.233062 0.309038 15.347546-1.650593-0.183172-3.396353 0.759293-3.373841 2.937912 0.524956 52.328809 3.524267 104.549148 8.91709 156.566872 0 0.004093 0.001023 0.008186 0.001023 0.01228 0.38374 6.724145-0.11154 14.133905 2.211365 20.318768 0.860601 7.419993 1.753947 14.836917 2.712785 22.246677 0.500397 3.867074 6.228865 4.157693 6.258541 0 0.034792-4.841262 0.066515-9.6815 0.101307-14.522762 0.839111-0.456395 1.425466-1.267876 1.297552-2.469238-0.421602-3.966335-0.796132-7.93574-1.197268-11.904121 0.00921-1.318018 0.01842-2.63706 0.027629-3.956102 1.523703 8.67866 3.319605 17.320481 5.406127 25.915229 0.763386 3.14155 5.41022 1.792832 4.803399-1.325182-5.134951-26.41358-8.491395-52.909024-9.827833-79.542614 0.132006-19.113313 0.267083-38.226626 0.399089-57.33994 0.028653-4.044106-5.959735-3.964288-6.227842 0-0.079818 1.179872-0.138146 2.360767-0.210801 3.541663-1.760087-28.186969-3.762697-56.358589-5.873778-84.506672-0.220011-2.930749-3.718695-3.595898-5.214768-1.915629-2.275833-4.070712-4.53427-8.150634-6.846942-12.20088 1.710968-0.320295 3.217275-2.174526 2.111081-4.168949-9.683547-17.46272-19.812231-34.669614-30.283724-51.664683-2.996241-5.143137-5.988388-10.288321-8.992815-15.425318-6.037507-10.324136-12.084223-20.644179-18.126846-30.965246-1.774413-3.031033-11.134595-16.237823-16.235776-25.179472 4.042059-0.429789 8.090259-0.938372 12.141528-1.560542 16.46295 1.786693 33.189913 1.955538 49.460482-0.12996 17.259082 23.362081 32.523741 47.90608 45.775556 73.761957 1.293459 3.621481 2.51938 7.2798 3.632737 11.002588 0.783853 2.622734 4.231371 2.984984 5.676279 0.741897C810.733778 407.078369 811.17073 404.080082 809.989835 398.606417zM708.08798 377.397373c11.592013 21.081131 23.190165 42.158169 34.747385 63.259766-18.680455-27.392884-34.673707-56.517201-49.755194-86.114287C698.137351 362.125551 703.150528 369.736902 708.08798 377.397373z" p-id="3485"></path><path d="M861.231893 484.510926c10.555403-19.640316 20.632923-39.515992 30.2827-59.594283 18.418488-28.411073 36.182061-57.241702 53.419653-86.399789 2.046612-3.461845-2.940982-6.074346-5.239328-3.061732-0.811482 1.063215-1.586125 2.152013-2.391467 3.219321-1.058099-0.022513-2.14792 0.413416-2.930749 1.489934-4.463662 6.14086-8.791224 12.362562-13.037944 18.633383 2.876514-6.823406 5.713119-13.664208 8.488325-20.532639 1.585101-3.923356-4.725628-5.571902-6.317892-1.741667-9.991562 24.043602-20.825304 47.693232-32.431643 70.960145-5.604648 9.411347-11.032264 18.930141-16.22759 28.584012-6.42534 10.532891-12.789281 21.100574-19.046798 31.724539-0.594541 1.007957-0.573051 2.661619 0.231267 3.64297-0.309038 0.471744-0.608867 0.947582-0.917906 1.419326-0.906649 0.459464-1.606591 1.315972-1.613754 2.661619-0.060375 12.278651-0.121773 24.556279-0.182149 36.83493-0.896416-9.849322-1.861394-19.695574-2.954285-29.532617-0.436952-3.928472-6.082532-4.112668-6.257517 0-2.780323 65.022922 0.060375 130.033565 8.394181 194.578604 0.086981 0.676405 0.369414 1.203408 0.716314 1.658779-0.051165 2.578732-0.061398 5.15644-0.125867 7.735172-0.070608 3.795443 5.79396 3.789303 5.892197 0 0.029676-1.612731 0.058328-3.226484 0.088004-4.840238 0.01228 0.025583 0.034792 0.044002 0.048095 0.069585 0.12382 4.217045 0.252757 8.432043 0.433882 12.646018 0.029676 0.687662 0.021489 1.49812-0.00614 2.387373-3.838422 0.641613-7.67275 1.199315-11.504008 1.627057-10.628058-1.285273-21.295002-2.003634-31.982412-2.241041-5.677303-1.24434-11.31879-2.756787-16.921391-4.571109-2.359744-0.76441-3.290953 2.846838-1.014096 3.678786 0.867764 0.317225 1.737574 0.580215 2.605338 0.880043-3.288906 0.062422-6.578836 0.151449-9.869788 0.294712-2.922563 0.12689-4.073782 4.287653-1.737574 5.626137 0.252757 1.006933 0.935302 1.89721 2.166339 2.217505 19.680225 5.111414 39.377846 5.66707 58.872852 1.779529l4.771677 0.1361c1.534959 0.044002 2.494821-0.799202 2.916423-1.885953 0.455371-0.118704 0.909719-0.24457 1.364067-0.36532-0.169869 4.704139-0.057305 9.512654 1.550309 11.803837 2.511193 3.580548 5.947456 2.822278 8.387018-0.078795 1.208525-1.436722-0.757247-3.492544-2.093684-2.093684-3.097548-2.799766-4.069689-6.240121-2.914376-10.31902 0.00614-0.237407-0.004093-0.474814 0.002047-0.711198 0.273223-0.083911 0.547469-0.156566 0.819668-0.242524 3.63069-1.159406 2.515287-5.968945-0.800225-6.15928-0.00307-1.573845 0.049119-3.146667 0.01535-4.720511-0.008186-2.852978-0.061398-5.703909-0.096191-8.555863 0.433882-0.372483 0.793062-0.862647 0.933255-1.586125 6.1777-31.801287 6.768147-63.990407 4.491291-96.240925-1.166569-16.529465-3.222391-32.943296-4.933359-49.418526-0.60989-5.869684 0.725524-12.418844 0.13303-17.773805-0.521886-4.717442 0.347924-4.161786-2.994194-7.587815-0.288572-0.295735-0.62524-0.49221-0.978281-0.63752-0.208754-8.094352-0.416486-16.188704-0.62524-24.282033C860.548324 485.368456 860.950484 485.033835 861.231893 484.510926zM852.792687 617.987916c-1.953492-25.554002-3.049452-51.155077-3.290953-76.783781 1.579985 21.49557 2.707668 43.015699 3.351328 64.555272C852.833619 609.836259 852.813153 613.912088 852.792687 617.987916zM863.518982 591.146595c0.917906 15.061021 1.169639 30.081109 0.463558 45.047985-0.509606-19.821441-1.020236-39.643905-1.529843-59.465346C862.854856 581.530586 863.226317 586.336032 863.518982 591.146595z" p-id="3486"></path><path d="M945.446923 322.763055c-1.602498-0.090051-3.203972-0.182149-4.806469-0.271176 1.370207-1.795902 1.054005-4.779863-1.698688-5.54018-12.612249-3.485381-25.085328-4.542456-37.533848-3.214205-0.747014-0.118704-1.421372 0.002047-2.013867 0.26913-6.247284 0.798179-12.489452 2.13871-18.741853 4.15974-0.535189 0.172939-0.959861 0.494257-1.330298 0.864694-1.989307-0.112564-3.980661-0.223081-5.969968-0.336668-0.221034-0.621147-0.638543-1.144056-1.207501-1.534959 1.064238-2.326998 2.156106-4.6366 3.182482-6.984065 1.540076-3.523243-3.146667-6.510274-5.276167-3.084245-2.362814 3.801583-4.704139 7.617491-7.057743 11.425214-1.094938 0.546446-1.766226 1.736551-1.830695 2.963495-8.970302 14.527878-17.906835 29.077246-26.845415 43.624567-5.682419 9.247618-11.562337 18.404162-17.058514 27.764344-2.299369 3.91517-4.248767 6.559393-4.246721 10.131755-1.12973 1.980097-0.096191 4.184299 1.600451 4.833075 0.181125 0.091074 0.373507 0.143263 0.579191 0.151449 0.272199 0.040932 0.548492 0.014326 0.833995-0.031722 2.198062-0.176009 2.361791-0.334621 3.582595-2.686179 2.956332-2.923586 5.780657-5.939269 8.480138-9.042957-0.939395 2.178619-1.87265 4.359284-2.778276 6.557346l-0.005117 0.008186c0.001023 0 0.001023 0 0.001023 0-0.10847 0.265036-0.226151 0.524956-0.334621 0.789992-1.450025 3.540639 4.190439 5.681396 6.04774 2.550079 12.489452-21.053502 23.663956-42.74043 33.599236-65.048505 1.561565-2.462075 3.152806-4.909823 4.76963-7.344269 3.749394-0.874927 8.351202-1.427512 13.340843-1.757017 15.734356 4.177136 32.05916 4.400217 48.558949 0.567935 1.404999-0.326435 2.130524-1.354857 2.299369-2.49789 3.940752-0.071631 7.890714-0.209778 11.859096-0.487094C949.801091 329.260026 949.842023 323.007625 945.446923 322.763055z" p-id="3487"></path></svg>