<?xml version="1.0" standalone="no"?><!DOCTYPE svg PUBLIC "-//W3C//DTD SVG 1.1//EN" "http://www.w3.org/Graphics/SVG/1.1/DTD/svg11.dtd"><svg t="1549613612228" class="icon" style="" viewBox="0 0 2979 1024" version="1.1" xmlns="http://www.w3.org/2000/svg" p-id="5727" xmlns:xlink="http://www.w3.org/1999/xlink" width="581.8359375" height="200"><defs><style type="text/css"></style></defs><path d="M1887.676768 181.010101l0 113.777778 25.858586 0c56.888889 0 93.090909 5.171717 108.606061 10.343434 15.515152 10.343434 25.858586 20.686869 31.030303 36.20202 5.171717 15.515152 5.171717 62.060606 5.171717 139.636364l0 527.515152 248.242424 0 0-982.626263-144.808081 0C2094.545455 98.262626 2006.626263 155.151515 1887.676768 181.010101z" p-id="5728"></path><path d="M2963.393939 191.353535c-5.171717-36.20202-20.686869-67.232323-41.373737-93.090909-20.686869-25.858586-51.717172-51.717172-93.090909-67.232323C2782.383838 10.343434 2735.838384 0 2684.121212 0c-67.232323 0-124.121212 15.515152-170.666667 41.373737-46.545455 25.858586-77.575758 62.060606-93.090909 108.606061-15.515152 46.545455-25.858586 113.777778-25.858586 201.69697l0 341.333333c0 67.232323 5.171717 118.949495 15.515152 149.979798 10.343434 31.030303 25.858586 62.060606 51.717172 93.090909 20.686869 31.030303 51.717172 51.717172 93.090909 62.060606 41.373737 15.515152 87.919192 20.686869 144.808081 20.686869 46.545455 0 82.747475-5.171717 118.949495-20.686869 36.20202-15.515152 67.232323-36.20202 93.090909-62.060606 25.858586-31.030303 41.373737-62.060606 51.717172-93.090909 10.343434-36.20202 10.343434-87.919192 10.343434-165.494949L2973.737374 351.676768C2978.909091 279.272727 2973.737374 227.555556 2963.393939 191.353535zM2730.666667 760.242424c0 46.545455-5.171717 77.575758-10.343434 93.090909s-15.515152 20.686869-36.20202 20.686869-31.030303-5.171717-36.20202-15.515152c-5.171717-10.343434-10.343434-46.545455-10.343434-103.434343L2637.575758 268.929293c0-51.717172 5.171717-82.747475 10.343434-98.262626C2658.262626 160.323232 2668.606061 155.151515 2689.292929 155.151515c20.686869 0 31.030303 5.171717 36.20202 20.686869s5.171717 46.545455 5.171717 98.262626L2730.666667 760.242424z" p-id="5729"></path><path d="M537.858586 93.090909C512 67.232323 480.969697 46.545455 439.59596 41.373737 356.848485 25.858586 274.10101 20.686869 191.353535 20.686869L0 20.686869l0 982.626263 320.646465 0c46.545455 0 93.090909 0 134.464646-10.343434 25.858586-5.171717 51.717172-15.515152 77.575758-36.20202 20.686869-20.686869 36.20202-41.373737 41.373737-72.40404 10.343434-56.888889 15.515152-118.949495 10.343434-175.838384L584.40404 367.191919c0-62.060606 0-124.121212-10.343434-186.181818C574.060606 149.979798 563.717172 118.949495 537.858586 93.090909zM336.161616 693.010101c5.171717 41.373737 0 82.747475-10.343434 118.949495-15.515152 20.686869-41.373737 25.858586-67.232323 20.686869L258.585859 191.353535c20.686869 0 41.373737 0 56.888889 10.343434C320.646465 206.868687 330.989899 217.212121 330.989899 227.555556 336.161616 253.414141 336.161616 284.444444 336.161616 310.30303L336.161616 693.010101z" p-id="5730"></path><path d="M744.727273 20.686869 744.727273 20.686869l-129.292929 982.626263L879.191919 1003.313131l15.515152-175.838384L982.626263 827.474747l15.515152 175.838384 258.585859 0-144.808081-982.626263L744.727273 20.686869zM889.535354 651.636364c5.171717-87.919192 20.686869-222.383838 46.545455-413.737374 15.515152 165.494949 25.858586 299.959596 41.373737 413.737374L889.535354 651.636364z" p-id="5731"></path><path d="M1530.828283 408.565657c-5.171717-67.232323-25.858586-196.525253-62.060606-387.878788l-232.727273 0 181.010101 625.777778 0 356.848485 237.89899 0 0-356.848485 186.181818-625.777778L1603.232323 20.686869C1567.030303 175.838384 1546.343434 305.131313 1530.828283 408.565657z" p-id="5732"></path></svg>