<?xml version="1.0" standalone="no"?><!DOCTYPE svg PUBLIC "-//W3C//DTD SVG 1.1//EN" "http://www.w3.org/Graphics/SVG/1.1/DTD/svg11.dtd"><svg t="1549613596637" class="icon" style="" viewBox="0 0 3129 1024" version="1.1" xmlns="http://www.w3.org/2000/svg" p-id="5112" xmlns:xlink="http://www.w3.org/1999/xlink" width="611.1328125" height="200"><defs><style type="text/css"></style></defs><path d="M2472.080808 258.585859c0-72.40404-25.858586-134.464646-77.575758-186.181818C2347.959596 25.858586 2275.555556 0 2177.292929 0c-51.717172 0-93.090909 10.343434-129.292929 25.858586-36.20202 15.515152-67.232323 41.373737-87.919192 72.40404-20.686869 31.030303-36.20202 62.060606-41.373737 93.090909C1913.535354 217.212121 1913.535354 263.757576 1913.535354 320.646465l0 36.20202 222.383838 0L2135.919192 258.585859c0-41.373737 5.171717-72.40404 15.515152-87.919192C2161.777778 155.151515 2172.121212 149.979798 2192.808081 149.979798c20.686869 0 31.030303 5.171717 41.373737 20.686869 10.343434 15.515152 15.515152 31.030303 15.515152 62.060606 0 36.20202-15.515152 82.747475-46.545455 144.808081-31.030303 62.060606-124.121212 222.383838-284.444444 486.141414l0 139.636364 543.030303 0 0-165.494949-268.929293 0c139.636364-201.69697 222.383838-336.161616 248.242424-398.222222C2461.737374 372.363636 2472.080808 315.474747 2472.080808 258.585859z" p-id="5113"></path><path d="M3118.545455 191.353535c-5.171717-36.20202-20.686869-67.232323-41.373737-93.090909s-51.717172-51.717172-93.090909-67.232323C2937.535354 10.343434 2885.818182 0 2834.10101 0c-67.232323 0-124.121212 15.515152-170.666667 41.373737S2585.858586 103.434343 2570.343434 149.979798s-25.858586 113.777778-25.858586 201.69697l0 341.333333c0 67.232323 5.171717 118.949495 15.515152 149.979798s25.858586 62.060606 51.717172 93.090909c20.686869 31.030303 51.717172 51.717172 93.090909 62.060606 41.373737 15.515152 87.919192 20.686869 144.808081 20.686869 46.545455 0 82.747475-5.171717 118.949495-20.686869 36.20202-15.515152 67.232323-36.20202 93.090909-62.060606 25.858586-31.030303 41.373737-62.060606 51.717172-93.090909 10.343434-36.20202 10.343434-87.919192 10.343434-165.494949L3123.717172 351.676768C3128.888889 279.272727 3123.717172 222.383838 3118.545455 191.353535zM2875.474747 755.070707c0 46.545455 0 77.575758-5.171717 93.090909-5.171717 15.515152-15.515152 20.686869-36.20202 20.686869-20.686869 0-31.030303-5.171717-36.20202-15.515152-5.171717-10.343434-10.343434-46.545455-10.343434-103.434343L2787.555556 268.929293c0-51.717172 5.171717-82.747475 10.343434-98.262626 5.171717-15.515152 15.515152-20.686869 36.20202-20.686869 20.686869 0 31.030303 5.171717 36.20202 20.686869 5.171717 15.515152 5.171717 46.545455 5.171717 98.262626L2875.474747 755.070707 2875.474747 755.070707z" p-id="5114"></path><path d="M537.858586 93.090909C512 67.232323 480.969697 46.545455 439.59596 36.20202 356.848485 25.858586 274.10101 15.515152 191.353535 20.686869L0 20.686869l0 982.626263 320.646465 0c46.545455 0 93.090909 0 134.464646-10.343434 25.858586-5.171717 51.717172-15.515152 77.575758-36.20202 20.686869-20.686869 36.20202-41.373737 41.373737-72.40404 10.343434-56.888889 15.515152-118.949495 10.343434-175.838384L584.40404 367.191919c0-62.060606 0-124.121212-10.343434-186.181818C574.060606 149.979798 563.717172 118.949495 537.858586 93.090909zM336.161616 693.010101c5.171717 41.373737 0 82.747475-10.343434 118.949495C310.30303 832.646465 284.444444 837.818182 258.585859 832.646465L258.585859 186.181818c20.686869 0 41.373737 0 56.888889 10.343434 10.343434 5.171717 15.515152 15.515152 20.686869 25.858586 0 31.030303 0 62.060606 0 87.919192L336.161616 693.010101z" p-id="5115"></path><path d="M744.727273 20.686869 744.727273 20.686869l-129.292929 982.626263L879.191919 1003.313131l15.515152-175.838384L982.626263 827.474747l15.515152 175.838384 258.585859 0-144.808081-982.626263L744.727273 20.686869zM889.535354 651.636364c5.171717-87.919192 20.686869-222.383838 46.545455-413.737374 15.515152 165.494949 25.858586 299.959596 41.373737 413.737374L889.535354 651.636364z" p-id="5116"></path><path d="M1530.828283 408.565657c-5.171717-67.232323-25.858586-196.525253-62.060606-387.878788l-232.727273 0 181.010101 625.777778 0 356.848485L1654.949495 1003.313131l0-356.848485 186.181818-625.777778L1603.232323 20.686869C1567.030303 175.838384 1546.343434 305.131313 1530.828283 408.565657z" p-id="5117"></path></svg>