<?xml version="1.0" standalone="no"?><!DOCTYPE svg PUBLIC "-//W3C//DTD SVG 1.1//EN" "http://www.w3.org/Graphics/SVG/1.1/DTD/svg11.dtd"><svg t="1549613519925" class="icon" style="" viewBox="0 0 2481 1024" version="1.1" xmlns="http://www.w3.org/2000/svg" p-id="2954" xmlns:xlink="http://www.w3.org/1999/xlink" width="484.5703125" height="200"><defs><style type="text/css"></style></defs><path d="M2454.512563 504.281407c-20.582915-30.874372-46.311558-51.457286-82.331658-61.748744 36.020101-20.582915 61.748744-41.165829 77.18593-66.894472 15.437186-25.728643 20.582915-61.748744 20.582915-118.351759 0-82.331658-20.582915-144.080402-61.748744-190.39196C2372.180905 25.728643 2289.849246 0 2176.643216 0c-92.623116 0-159.517588 15.437186-205.829146 51.457286C1929.648241 82.331658 1903.919598 149.226131 1903.919598 241.849246l0 82.331658 246.994975 0L2150.914573 241.849246c0-36.020101 5.145729-61.748744 10.291457-72.040201C2166.351759 159.517588 2176.643216 154.371859 2197.226131 154.371859c15.437186 0 25.728643 5.145729 30.874372 15.437186 5.145729 10.291457 10.291457 36.020101 10.291457 66.894472l0 56.603015c0 30.874372-5.145729 56.603015-10.291457 72.040201S2212.663317 385.929648 2197.226131 391.075377c-15.437186 5.145729-51.457286 5.145729-108.060302 5.145729l0 144.080402c46.311558 0 77.18593 5.145729 97.768844 10.291457 15.437186 5.145729 30.874372 15.437186 36.020101 36.020101 10.291457 15.437186 10.291457 46.311558 10.291457 82.331658l0 66.894472c0 61.748744-5.145729 97.768844-10.291457 113.20603s-20.582915 20.582915-36.020101 20.582915c-15.437186 0-30.874372-5.145729-36.020101-15.437186-5.145729-10.291457-5.145729-36.020101-5.145729-82.331658l0-159.517588L1903.919598 612.341709l0 77.18593c0 92.623116 5.145729 159.517588 20.582915 195.537688 15.437186 36.020101 41.165829 72.040201 87.477387 97.768844 46.311558 25.728643 102.914573 41.165829 180.100503 41.165829 66.894472 0 123.497487-10.291457 169.809045-36.020101 41.165829-20.582915 72.040201-56.603015 92.623116-97.768844 15.437186-41.165829 25.728643-102.914573 25.728643-180.100503C2480.241206 602.050251 2475.095477 535.155779 2454.512563 504.281407z" p-id="2955"></path><path d="M535.155779 92.623116C509.427136 66.894472 478.552764 46.311558 437.386935 41.165829 355.055276 25.728643 272.723618 20.582915 190.39196 20.582915L0 20.582915l0 977.688442 319.035176 0c46.311558 0 92.623116 0 133.788945-10.291457 25.728643-5.145729 51.457286-15.437186 77.18593-36.020101 20.582915-20.582915 36.020101-41.165829 41.165829-72.040201 10.291457-56.603015 15.437186-118.351759 10.291457-174.954774L581.467337 365.346734c0-61.748744 0-123.497487-10.291457-185.246231C571.175879 149.226131 560.884422 118.351759 535.155779 92.623116zM334.472362 689.527638c5.145729 41.165829 0 82.331658-10.291457 118.351759-15.437186 20.582915-41.165829 25.728643-66.894472 20.582915L257.286432 190.39196c20.582915 0 41.165829 0 56.603015 10.291457C319.035176 205.829146 329.326633 216.120603 329.326633 226.41206 334.472362 252.140704 334.472362 283.015075 334.472362 308.743719L334.472362 689.527638z" p-id="2956"></path><path d="M740.984925 20.582915 740.984925 20.582915l-128.643216 977.688442L874.773869 998.271357l15.437186-174.954774L977.688442 823.316583l15.437186 174.954774 257.286432 0-144.080402-977.688442L740.984925 20.582915zM885.065327 648.361809c5.145729-87.477387 20.582915-221.266332 46.311558-411.658291 15.437186 164.663317 25.728643 298.452261 41.165829 411.658291L885.065327 648.361809z" p-id="2957"></path><path d="M1523.135678 406.512563c-5.145729-66.894472-25.728643-195.537688-61.748744-385.929648l-231.557789 0 180.100503 622.633166 0 355.055276 236.703518 0 0-355.055276 185.246231-622.633166L1595.175879 20.582915C1559.155779 174.954774 1538.572864 303.59799 1523.135678 406.512563z" p-id="2958"></path></svg>