<?xml version="1.0" standalone="no"?><!DOCTYPE svg PUBLIC "-//W3C//DTD SVG 1.1//EN" "http://www.w3.org/Graphics/SVG/1.1/DTD/svg11.dtd"><svg t="1549613535657" class="icon" style="" viewBox="0 0 3134 1024" version="1.1" xmlns="http://www.w3.org/2000/svg" p-id="3520" xmlns:xlink="http://www.w3.org/1999/xlink" width="612.109375" height="200"><defs><style type="text/css"></style></defs><path d="M2459.658291 257.286432c0-72.040201-25.728643-133.788945-77.18593-185.246231C2331.015075 25.728643 2258.974874 0 2161.20603 0c-51.457286 0-92.623116 10.291457-128.643216 25.728643-36.020101 15.437186-66.894472 41.165829-87.477387 72.040201-20.582915 30.874372-36.020101 61.748744-41.165829 92.623116 0 30.874372 0 77.18593 0 128.643216l0 36.020101 221.266332 0L2125.18593 262.432161c0-41.165829 5.145729-72.040201 15.437186-87.477387C2150.914573 159.517588 2156.060302 154.371859 2176.643216 154.371859c20.582915 0 30.874372 5.145729 41.165829 20.582915 10.291457 15.437186 15.437186 30.874372 15.437186 61.748744 0 36.020101-15.437186 82.331658-46.311558 144.080402-30.874372 61.748744-123.497487 221.266332-283.015075 483.698492l0 138.934673 540.301508 0 0-164.663317-267.577889 0c138.934673-200.683417 221.266332-334.472362 246.994975-396.221106C2449.366834 375.638191 2459.658291 313.889447 2459.658291 257.286432z" p-id="3521"></path><path d="M3118.311558 216.120603c-5.145729-36.020101-15.437186-72.040201-41.165829-108.060302-20.582915-36.020101-56.603015-61.748744-97.768844-77.18593-41.165829-20.582915-97.768844-25.728643-159.517588-25.728643-51.457286 0-97.768844 10.291457-138.934673 25.728643-41.165829 15.437186-72.040201 36.020101-92.623116 66.894472-20.582915 30.874372-36.020101 61.748744-41.165829 92.623116-5.145729 36.020101-10.291457 82.331658-10.291457 154.371859l0 77.18593c0 56.603015 5.145729 102.914573 15.437186 138.934673 10.291457 36.020101 30.874372 61.748744 66.894472 87.477387s72.040201 36.020101 118.351759 36.020101c36.020101 0 66.894472-5.145729 92.623116-20.582915s41.165829-30.874372 56.603015-56.603015l0 154.371859c0 36.020101 0 61.748744 0 72.040201s-5.145729 20.582915-15.437186 30.874372c-10.291457 5.145729-20.582915 10.291457-30.874372 10.291457-15.437186 0-25.728643-5.145729-36.020101-10.291457-10.291457-10.291457-15.437186-20.582915-15.437186-30.874372s0-41.165829 0-87.477387l-246.994975 0c0 61.748744 10.291457 113.20603 30.874372 154.371859 20.582915 41.165829 51.457286 72.040201 92.623116 92.623116 46.311558 20.582915 97.768844 30.874372 169.809045 30.874372 56.603015 0 102.914573-10.291457 149.226131-25.728643 46.311558-15.437186 77.18593-46.311558 102.914573-77.18593 25.728643-36.020101 41.165829-72.040201 41.165829-113.20603 5.145729-41.165829 5.145729-118.351759 5.145729-231.557789L3133.748744 437.386935C3123.457286 329.326633 3118.311558 252.140704 3118.311558 216.120603zM2876.462312 437.386935c0 36.020101-5.145729 61.748744-10.291457 72.040201-10.291457 10.291457-20.582915 20.582915-36.020101 20.582915-10.291457 0-20.582915-5.145729-30.874372-15.437186C2783.839196 504.281407 2778.693467 478.552764 2778.693467 437.386935L2778.693467 252.140704c0-46.311558 5.145729-72.040201 15.437186-82.331658C2809.567839 159.517588 2819.859296 154.371859 2830.150754 154.371859c15.437186 0 30.874372 5.145729 36.020101 20.582915s10.291457 41.165829 10.291457 82.331658L2876.462312 437.386935z" p-id="3522"></path><path d="M535.155779 97.768844C509.427136 66.894472 478.552764 51.457286 437.386935 41.165829 355.055276 25.728643 272.723618 20.582915 190.39196 25.728643L0 25.728643l0 977.688442 319.035176 0c46.311558 0 92.623116 0 133.788945-10.291457 25.728643-5.145729 51.457286-15.437186 77.18593-36.020101 20.582915-20.582915 36.020101-41.165829 41.165829-72.040201 10.291457-56.603015 15.437186-118.351759 10.291457-174.954774L581.467337 370.492462c0-61.748744 0-123.497487-10.291457-185.246231C571.175879 149.226131 560.884422 123.497487 535.155779 97.768844zM334.472362 689.527638c0 51.457286 0 82.331658-10.291457 113.20603C308.743719 823.316583 283.015075 833.60804 257.286432 828.462312L257.286432 190.39196c20.582915 0 41.165829 0 56.603015 10.291457C319.035176 205.829146 329.326633 216.120603 329.326633 226.41206 334.472362 257.286432 334.472362 283.015075 334.472362 313.889447L334.472362 689.527638z" p-id="3523"></path><path d="M740.984925 25.728643 740.984925 25.728643l-128.643216 977.688442L874.773869 1003.417085l15.437186-174.954774L977.688442 828.462312l15.437186 174.954774 257.286432 0-144.080402-977.688442L740.984925 25.728643zM885.065327 653.507538c5.145729-87.477387 20.582915-221.266332 46.311558-411.658291 15.437186 164.663317 25.728643 298.452261 41.165829 411.658291L885.065327 653.507538z" p-id="3524"></path><path d="M1523.135678 411.658291c-5.145729-66.894472-25.728643-195.537688-61.748744-385.929648l-231.557789 0 180.100503 622.633166 0 355.055276L1646.633166 1003.417085l0-355.055276 185.246231-622.633166L1595.175879 25.728643C1559.155779 174.954774 1538.572864 303.59799 1523.135678 411.658291z" p-id="3525"></path></svg>