<?xml version="1.0" standalone="no"?><!DOCTYPE svg PUBLIC "-//W3C//DTD SVG 1.1//EN" "http://www.w3.org/Graphics/SVG/1.1/DTD/svg11.dtd"><svg t="1549613569625" class="icon" style="" viewBox="0 0 2553 1024" version="1.1" xmlns="http://www.w3.org/2000/svg" p-id="4316" xmlns:xlink="http://www.w3.org/1999/xlink" width="498.6328125" height="200"><defs><style type="text/css"></style></defs><path d="M2494.358974 320.328205c-36.758974-36.758974-89.271795-57.764103-157.538462-57.764103-63.015385 0-110.276923 21.005128-147.035897 68.266667L2189.784615 162.789744l309.825641 0L2499.610256 0 1963.979487 0l-10.502564 504.123077 246.810256 0c0-31.507692 0-47.261538 5.251282-57.764103 0-10.502564 5.251282-15.753846 15.753846-21.005128 5.251282-5.251282 15.753846-10.502564 31.507692-10.502564 15.753846 0 31.507692 5.251282 36.758974 21.005128s10.502564 36.758974 10.502564 78.769231l0 199.548718c0 68.266667 0 110.276923 0 115.528205 0 10.502564-5.251282 15.753846-10.502564 26.25641s-15.753846 10.502564-31.507692 10.502564c-26.25641 0-42.010256-15.753846-47.261538-42.010256-5.251282-26.25641-5.251282-73.517949-5.251282-136.533333l0-63.015385-252.061538 0 0 52.512821c0 94.523077 10.502564 162.789744 31.507692 204.8 21.005128 42.010256 57.764103 78.769231 105.025641 99.774359s105.025641 31.507692 168.041026 31.507692c57.764103 0 105.025641-5.251282 147.035897-21.005128 42.010256-15.753846 68.266667-36.758974 94.523077-63.015385 21.005128-26.25641 36.758974-57.764103 42.010256-94.523077s10.502564-84.020513 10.502564-157.538462l0-141.784615C2546.871795 430.605128 2525.866667 357.087179 2494.358974 320.328205z" p-id="4317"></path><path d="M546.133333 78.769231C519.876923 47.261538 488.369231 26.25641 446.358974 21.005128 362.338462 5.251282 278.317949 0 194.297436 5.251282L0 5.251282l0 997.74359 325.579487 0c47.261538 0 94.523077 0 136.533333-10.502564 26.25641-5.251282 52.512821-15.753846 78.769231-36.758974 21.005128-21.005128 36.758974-42.010256 42.010256-73.517949 10.502564-57.764103 15.753846-120.779487 10.502564-178.54359L593.394872 357.087179c0-63.015385 0-126.030769-10.502564-189.046154C582.892308 131.282051 572.389744 99.774359 546.133333 78.769231zM341.333333 682.666667c5.251282 42.010256 0 84.020513-10.502564 120.779487-15.753846 15.753846-42.010256 26.25641-68.266667 21.005128L262.564103 173.292308c21.005128 0 42.010256 0 57.764103 10.502564C325.579487 189.046154 336.082051 199.548718 336.082051 210.051282c5.251282 26.25641 5.251282 57.764103 5.251282 84.020513L341.333333 682.666667z" p-id="4318"></path><path d="M756.184615 5.251282 756.184615 5.251282l-131.282051 997.74359L892.717949 1002.994872l15.753846-178.54359L997.74359 824.451282l15.753846 178.54359 262.564103 0-147.035897-997.74359L756.184615 5.251282zM903.220513 645.907692c5.251282-89.271795 21.005128-225.805128 47.261538-420.102564 15.753846 168.041026 26.25641 304.574359 42.010256 420.102564L903.220513 645.907692z" p-id="4319"></path><path d="M1554.379487 393.846154c-5.251282-68.266667-26.25641-199.548718-63.015385-393.846154l-236.307692 0 183.794872 635.405128L1438.851282 997.74359l241.558974 0 0-362.338462 189.046154-635.405128L1627.897436 0C1591.138462 157.538462 1570.133333 288.820513 1554.379487 393.846154z" p-id="4320"></path></svg>