<?xml version="1.0" standalone="no"?><!DOCTYPE svg PUBLIC "-//W3C//DTD SVG 1.1//EN" "http://www.w3.org/Graphics/SVG/1.1/DTD/svg11.dtd"><svg t="1549613522354" class="icon" style="" viewBox="0 0 3046 1024" version="1.1" xmlns="http://www.w3.org/2000/svg" p-id="3067" xmlns:xlink="http://www.w3.org/1999/xlink" width="594.921875" height="200"><defs><style type="text/css"></style></defs><path d="M1926.597938 158.350515l0 116.123711 26.391753 0c58.061856 0 95.010309 5.278351 110.845361 10.556701 15.835052 10.556701 26.391753 21.113402 31.670103 36.948454 5.278351 15.835052 5.278351 63.340206 5.278351 142.515464L2100.783505 1002.886598l253.360825 0L2354.14433 0l-147.793814 0C2137.731959 79.175258 2048 131.958763 1926.597938 158.350515z" p-id="3068"></path><path d="M2992.824742 321.979381C2955.876289 279.752577 2903.092784 263.917526 2834.474227 263.917526c-63.340206 0-110.845361 21.113402-147.793814 68.618557L2686.680412 158.350515l311.42268 0L2998.103093 0 2454.43299 0l-10.556701 506.721649L2691.958763 506.721649c0-31.670103 0-47.505155 5.278351-58.061856 0-10.556701 5.278351-15.835052 15.835052-21.113402 5.278351-5.278351 15.835052-10.556701 31.670103-10.556701 15.835052 0 31.670103 5.278351 36.948454 21.113402s10.556701 36.948454 10.556701 79.175258l0 200.57732c0 68.618557 0 110.845361 0 116.123711 0 10.556701-5.278351 15.835052-10.556701 26.391753s-15.835052 10.556701-31.670103 10.556701c-26.391753 0-42.226804-15.835052-47.505155-42.226804-5.278351-26.391753-5.278351-73.896907-5.278351-137.237113l0-63.340206-253.360825 0 0 52.783505c0 95.010309 10.556701 163.628866 31.670103 205.85567 21.113402 42.226804 58.061856 79.175258 105.56701 100.28866s105.56701 31.670103 168.907216 31.670103c58.061856 0 105.56701-5.278351 147.793814-21.113402 42.226804-15.835052 68.618557-36.948454 95.010309-63.340206 21.113402-26.391753 36.948454-58.061856 42.226804-95.010309s10.556701-84.453608 10.556701-158.350515l0-142.515464C3045.608247 432.824742 3024.494845 358.927835 2992.824742 321.979381z" p-id="3069"></path><path d="M548.948454 73.896907C522.556701 47.505155 490.886598 26.391753 448.659794 15.835052 364.206186 5.278351 279.752577 0 195.298969 0L0 0l0 1002.886598 327.257732 0c47.505155 0 95.010309 0 137.237113-10.556701 26.391753-5.278351 52.783505-15.835052 79.175258-36.948454 21.113402-21.113402 36.948454-42.226804 42.226804-73.896907 10.556701-58.061856 15.835052-121.402062 10.556701-179.463918L596.453608 353.649485c0-63.340206 0-126.680412-10.556701-190.020619C585.896907 131.958763 575.340206 100.28866 548.948454 73.896907zM343.092784 686.185567c5.278351 42.226804 0 84.453608-10.556701 121.402062-15.835052 21.113402-42.226804 26.391753-68.618557 21.113402L263.917526 174.185567c21.113402 0 42.226804 0 58.061856 10.556701C327.257732 184.742268 337.814433 195.298969 337.814433 211.134021c5.278351 26.391753 5.278351 58.061856 5.278351 84.453608L343.092784 686.185567z" p-id="3070"></path><path d="M760.082474 0 760.082474 0l-131.958763 1002.886598L897.319588 1002.886598l15.835052-179.463918L1002.886598 823.42268l15.835052 179.463918 263.917526 0L1134.845361 0 760.082474 0zM907.876289 643.958763c5.278351-89.731959 21.113402-226.969072 47.505155-422.268041 15.835052 168.907216 26.391753 306.14433 42.226804 422.268041L907.876289 643.958763z" p-id="3071"></path><path d="M1562.391753 395.876289c-5.278351-68.618557-26.391753-200.57732-63.340206-395.876289l-237.525773 0 184.742268 638.680412L1446.268041 1002.886598l242.804124 0 0-364.206186L1873.814433 0 1636.28866 0C1599.340206 158.350515 1578.226804 290.309278 1562.391753 395.876289z" p-id="3072"></path></svg>