<?xml version="1.0" standalone="no"?><!DOCTYPE svg PUBLIC "-//W3C//DTD SVG 1.1//EN" "http://www.w3.org/Graphics/SVG/1.1/DTD/svg11.dtd"><svg t="1549613516166" class="icon" style="" viewBox="0 0 3130 1024" version="1.1" xmlns="http://www.w3.org/2000/svg" p-id="2840" xmlns:xlink="http://www.w3.org/1999/xlink" width="611.328125" height="200"><defs><style type="text/css"></style></defs><path d="M2497.306122 261.22449c0-73.142857-26.122449-135.836735-78.367347-188.081633C2371.918367 26.122449 2298.77551 0 2199.510204 0c-52.244898 0-94.040816 10.44898-130.612245 26.122449-36.571429 15.673469-67.918367 41.795918-88.816327 73.142857-20.897959 31.346939-36.571429 62.693878-41.795918 94.040816C1933.061224 219.428571 1933.061224 266.44898 1933.061224 323.918367l0 36.571429 224.653061 0L2157.714286 261.22449c0-41.795918 5.22449-73.142857 15.673469-88.816327s20.897959-20.897959 41.795918-20.897959 31.346939 5.22449 41.795918 20.897959c10.44898 15.673469 15.673469 31.346939 15.673469 62.693878 0 36.571429-15.673469 83.591837-47.020408 146.285714-31.346939 62.693878-125.387755 224.653061-287.346939 491.102041l0 141.061224 548.571429 0 0-167.183673-271.673469 0c141.061224-203.755102 224.653061-339.591837 250.77551-402.285714C2486.857143 376.163265 2497.306122 318.693878 2497.306122 261.22449z" p-id="2841"></path><path d="M3056.326531 668.734694 3056.326531 20.897959l-329.142857 0-214.204082 647.836735 0 167.183673 292.571429 0 0 177.632653 250.77551 0 0-177.632653 73.142857 0 0-167.183673L3056.326531 668.734694zM2805.55102 668.734694l-109.714286 0 109.714286-423.183673L2805.55102 668.734694z" p-id="2842"></path><path d="M543.346939 94.040816C517.22449 67.918367 485.877551 47.020408 444.081633 36.571429 360.489796 26.122449 276.897959 15.673469 193.306122 20.897959L0 20.897959l0 992.653061 323.918367 0c47.020408 0 94.040816 0 135.836735-10.44898 26.122449-5.22449 52.244898-15.673469 78.367347-36.571429 20.897959-20.897959 36.571429-41.795918 41.795918-67.918367 10.44898-57.469388 15.673469-120.163265 10.44898-177.632653L590.367347 370.938776c0-62.693878 0-125.387755-10.44898-188.081633C579.918367 151.510204 569.469388 120.163265 543.346939 94.040816zM339.591837 700.081633c5.22449 41.795918 0 83.591837-10.44898 120.163265-15.673469 20.897959-41.795918 26.122449-67.918367 20.897959L261.22449 188.081633c20.897959 0 41.795918 0 57.469388 10.44898 10.44898 5.22449 15.673469 15.673469 20.897959 26.122449C339.591837 256 339.591837 287.346939 339.591837 313.469388L339.591837 700.081633z" p-id="2843"></path><path d="M752.326531 20.897959 752.326531 20.897959l-130.612245 992.653061L888.163265 1013.55102l15.673469-177.632653L992.653061 835.918367l15.673469 177.632653 261.22449 0-146.285714-992.653061L752.326531 20.897959zM898.612245 658.285714c5.22449-88.816327 20.897959-224.653061 47.020408-417.959184 15.673469 167.183673 26.122449 303.020408 41.795918 417.959184L898.612245 658.285714z" p-id="2844"></path><path d="M1546.44898 412.734694c-5.22449-67.918367-26.122449-198.530612-62.693878-391.836735l-235.102041 0 182.857143 632.163265 0 360.489796 240.326531 0 0-360.489796 188.081633-632.163265L1619.591837 20.897959C1583.020408 177.632653 1562.122449 308.244898 1546.44898 412.734694z" p-id="2845"></path></svg>