<?xml version="1.0" standalone="no"?><!DOCTYPE svg PUBLIC "-//W3C//DTD SVG 1.1//EN" "http://www.w3.org/Graphics/SVG/1.1/DTD/svg11.dtd"><svg t="1549613593331" class="icon" style="" viewBox="0 0 3041 1024" version="1.1" xmlns="http://www.w3.org/2000/svg" p-id="4998" xmlns:xlink="http://www.w3.org/1999/xlink" width="593.9453125" height="200"><defs><style type="text/css"></style></defs><path d="M2523.051546 263.917526c0-73.896907-26.391753-137.237113-79.175258-190.020619C2396.371134 26.391753 2322.474227 0 2222.185567 0c-52.783505 0-95.010309 10.556701-131.958763 26.391753-36.948454 15.835052-68.618557 42.226804-89.731959 73.896907-21.113402 31.670103-36.948454 63.340206-42.226804 95.010309C1952.989691 221.690722 1952.989691 269.195876 1952.989691 327.257732l0 36.948454 226.969072 0L2179.958763 263.917526c0-42.226804 5.278351-73.896907 15.835052-89.731959s21.113402-21.113402 42.226804-21.113402 31.670103 5.278351 42.226804 21.113402c10.556701 15.835052 15.835052 31.670103 15.835052 63.340206 0 36.948454-15.835052 84.453608-47.505155 147.793814-31.670103 63.340206-126.680412 226.969072-290.309278 496.164948l0 142.515464 554.226804 0 0-168.907216-274.474227 0c142.515464-205.85567 226.969072-343.092784 253.360825-406.43299C2512.494845 380.041237 2523.051546 321.979381 2523.051546 263.917526z" p-id="4999"></path><path d="M2565.278351 21.113402 2565.278351 200.57732 2813.360825 200.57732 2633.896907 1024 2881.979381 1024 3040.329897 237.525773 3040.329897 21.113402Z" p-id="5000"></path><path d="M548.948454 95.010309C522.556701 68.618557 490.886598 47.505155 448.659794 36.948454 364.206186 26.391753 279.752577 15.835052 195.298969 21.113402L0 21.113402l0 1002.886598 327.257732 0c47.505155 0 95.010309 0 137.237113-10.556701 26.391753-5.278351 52.783505-15.835052 79.175258-36.948454 21.113402-21.113402 36.948454-42.226804 42.226804-73.896907 10.556701-58.061856 15.835052-121.402062 10.556701-179.463918L596.453608 374.762887c0-63.340206 0-126.680412-10.556701-190.020619C585.896907 153.072165 575.340206 121.402062 548.948454 95.010309zM343.092784 707.298969c5.278351 42.226804 0 84.453608-10.556701 121.402062-15.835052 21.113402-42.226804 26.391753-68.618557 21.113402L263.917526 190.020619c21.113402 0 42.226804 0 58.061856 10.556701 10.556701 5.278351 15.835052 15.835052 21.113402 26.391753C343.092784 258.639175 343.092784 290.309278 343.092784 316.701031L343.092784 707.298969z" p-id="5001"></path><path d="M760.082474 21.113402 760.082474 21.113402l-131.958763 1002.886598L897.319588 1024l15.835052-179.463918L1002.886598 844.536082l15.835052 179.463918 263.917526 0-147.793814-1002.886598L760.082474 21.113402zM907.876289 665.072165c5.278351-89.731959 21.113402-226.969072 47.505155-422.268041 15.835052 168.907216 26.391753 306.14433 42.226804 422.268041L907.876289 665.072165z" p-id="5002"></path><path d="M1562.391753 416.989691c-5.278351-68.618557-26.391753-200.57732-63.340206-395.876289l-237.525773 0 184.742268 638.680412 0 364.206186 242.804124 0 0-364.206186 190.020619-638.680412L1636.28866 21.113402C1599.340206 179.463918 1578.226804 311.42268 1562.391753 416.989691z" p-id="5003"></path></svg>