<?xml version="1.0" standalone="no"?><!DOCTYPE svg PUBLIC "-//W3C//DTD SVG 1.1//EN" "http://www.w3.org/Graphics/SVG/1.1/DTD/svg11.dtd"><svg t="1549613604578" class="icon" style="" viewBox="0 0 2969 1024" version="1.1" xmlns="http://www.w3.org/2000/svg" p-id="5385" xmlns:xlink="http://www.w3.org/1999/xlink" width="579.8828125" height="200"><defs><style type="text/css"></style></defs><path d="M1887.676768 175.838384l0 113.777778 25.858586 0c56.888889 0 93.090909 5.171717 108.606061 10.343434 15.515152 10.343434 25.858586 20.686869 31.030303 36.20202 5.171717 15.515152 5.171717 62.060606 5.171717 139.636364l0 527.515152 248.242424 0 0-982.626263-144.808081 0C2094.545455 98.262626 2006.626263 149.979798 1887.676768 175.838384z" p-id="5386"></path><path d="M2942.707071 506.828283c-20.686869-31.030303-46.545455-51.717172-82.747475-62.060606 36.20202-20.686869 62.060606-41.373737 77.575758-67.232323 15.515152-25.858586 20.686869-62.060606 20.686869-118.949495 0-82.747475-20.686869-144.808081-62.060606-191.353535C2854.787879 20.686869 2777.212121 0 2658.262626 0c-93.090909 0-160.323232 15.515152-206.868687 51.717172-41.373737 31.030303-62.060606 98.262626-62.060606 191.353535l0 82.747475L2637.575758 325.818182 2637.575758 243.070707C2637.575758 206.868687 2637.575758 181.010101 2642.747475 170.666667c5.171717-10.343434 15.515152-15.515152 36.20202-15.515152 15.515152 0 25.858586 5.171717 31.030303 15.515152 5.171717 10.343434 10.343434 36.20202 10.343434 67.232323l0 56.888889c0 31.030303-5.171717 56.888889-10.343434 72.40404s-15.515152 25.858586-31.030303 31.030303c-15.515152 5.171717-51.717172 5.171717-108.606061 5.171717l0 144.808081c46.545455 0 77.575758 5.171717 98.262626 10.343434 15.515152 5.171717 31.030303 15.515152 36.20202 36.20202 10.343434 15.515152 10.343434 46.545455 10.343434 82.747475l0 67.232323c0 62.060606-5.171717 98.262626-10.343434 113.777778s-20.686869 20.686869-36.20202 20.686869c-15.515152 0-31.030303-5.171717-36.20202-15.515152C2637.575758 842.989899 2637.575758 817.131313 2637.575758 770.585859l0-160.323232-248.242424 0 0 77.575758c0 93.090909 5.171717 160.323232 20.686869 196.525253 15.515152 36.20202 41.373737 72.40404 87.919192 98.262626 46.545455 25.858586 103.434343 41.373737 181.010101 41.373737 67.232323 0 124.121212-10.343434 170.666667-36.20202 41.373737-20.686869 72.40404-56.888889 93.090909-98.262626 15.515152-41.373737 25.858586-103.434343 25.858586-181.010101C2968.565657 605.090909 2958.222222 537.858586 2942.707071 506.828283z" p-id="5387"></path><path d="M537.858586 93.090909C512 67.232323 480.969697 46.545455 439.59596 36.20202 356.848485 25.858586 274.10101 20.686869 191.353535 20.686869L0 20.686869l0 982.626263 320.646465 0c46.545455 0 93.090909 0 134.464646-10.343434 25.858586-5.171717 51.717172-15.515152 77.575758-36.20202 20.686869-20.686869 36.20202-41.373737 41.373737-72.40404 10.343434-56.888889 15.515152-118.949495 10.343434-175.838384L584.40404 367.191919c0-62.060606 0-124.121212-10.343434-186.181818C574.060606 149.979798 563.717172 118.949495 537.858586 93.090909zM336.161616 693.010101c5.171717 41.373737 0 82.747475-10.343434 118.949495-15.515152 20.686869-41.373737 25.858586-67.232323 20.686869L258.585859 191.353535c20.686869 0 41.373737 0 56.888889 10.343434 10.343434 5.171717 15.515152 15.515152 20.686869 25.858586C336.161616 253.414141 336.161616 284.444444 336.161616 310.30303L336.161616 693.010101z" p-id="5388"></path><path d="M744.727273 20.686869 744.727273 20.686869l-129.292929 982.626263L879.191919 1003.313131l15.515152-175.838384L982.626263 827.474747l15.515152 175.838384 258.585859 0-144.808081-982.626263L744.727273 20.686869zM889.535354 651.636364c5.171717-87.919192 20.686869-222.383838 46.545455-413.737374 15.515152 165.494949 25.858586 299.959596 41.373737 413.737374L889.535354 651.636364z" p-id="5389"></path><path d="M1530.828283 408.565657c-5.171717-67.232323-25.858586-196.525253-62.060606-387.878788l-232.727273 0 181.010101 625.777778 0 356.848485 237.89899 0 0-356.848485 186.181818-625.777778L1603.232323 20.686869C1567.030303 175.838384 1546.343434 305.131313 1530.828283 408.565657z" p-id="5390"></path></svg>