<?xml version="1.0" standalone="no"?><!DOCTYPE svg PUBLIC "-//W3C//DTD SVG 1.1//EN" "http://www.w3.org/Graphics/SVG/1.1/DTD/svg11.dtd"><svg t="1549613500938" class="icon" style="" viewBox="0 0 3140 1024" version="1.1" xmlns="http://www.w3.org/2000/svg" p-id="2612" xmlns:xlink="http://www.w3.org/1999/xlink" width="613.28125" height="200"><defs><style type="text/css"></style></defs><path d="M2472.080808 258.585859c0-72.40404-25.858586-134.464646-77.575758-186.181818C2347.959596 25.858586 2275.555556 0 2177.292929 0c-51.717172 0-93.090909 10.343434-129.292929 25.858586-36.20202 15.515152-67.232323 41.373737-87.919192 72.40404-20.686869 31.030303-36.20202 62.060606-41.373737 93.090909C1913.535354 217.212121 1913.535354 263.757576 1913.535354 320.646465l0 36.20202 222.383838 0L2135.919192 258.585859c0-41.373737 5.171717-72.40404 15.515152-87.919192s20.686869-20.686869 41.373737-20.686869 31.030303 5.171717 41.373737 20.686869c10.343434 15.515152 15.515152 31.030303 15.515152 62.060606 0 36.20202-15.515152 82.747475-46.545455 144.808081-31.030303 62.060606-124.121212 222.383838-284.444444 486.141414l0 139.636364 543.030303 0 0-165.494949-268.929293 0c139.636364-201.69697 222.383838-336.161616 248.242424-398.222222C2461.737374 372.363636 2472.080808 315.474747 2472.080808 258.585859z" p-id="2613"></path><path d="M3082.343434 330.989899c-36.20202-36.20202-87.919192-56.888889-155.151515-56.888889-62.060606 0-108.606061 20.686869-144.808081 67.232323L2782.383838 175.838384l305.131313 0 0-155.151515L2554.828283 20.686869 2544.484848 517.171717 2792.727273 517.171717c0-31.030303 0-46.545455 5.171717-56.888889 0-10.343434 5.171717-15.515152 15.515152-20.686869 5.171717-5.171717 15.515152-10.343434 31.030303-10.343434 15.515152 0 31.030303 5.171717 36.20202 20.686869s10.343434 36.20202 10.343434 77.575758l0 196.525253c0 67.232323 0 108.606061 0 113.777778 0 10.343434-5.171717 15.515152-10.343434 25.858586s-15.515152 10.343434-31.030303 10.343434c-25.858586 0-41.373737-15.515152-46.545455-41.373737C2792.727273 801.616162 2792.727273 760.242424 2792.727273 693.010101l0-62.060606-248.242424 0 0 51.717172c0 93.090909 10.343434 160.323232 31.030303 201.69697 20.686869 41.373737 56.888889 77.575758 103.434343 98.262626s103.434343 31.030303 165.494949 31.030303c56.888889 0 103.434343-5.171717 144.808081-20.686869 41.373737-15.515152 67.232323-36.20202 93.090909-62.060606 20.686869-25.858586 36.20202-56.888889 41.373737-93.090909s10.343434-82.747475 10.343434-155.151515l0-139.636364C3134.060606 444.767677 3113.373737 372.363636 3082.343434 330.989899z" p-id="2614"></path><path d="M537.858586 93.090909C512 67.232323 480.969697 46.545455 439.59596 36.20202 356.848485 25.858586 274.10101 15.515152 191.353535 20.686869L0 20.686869l0 982.626263 320.646465 0c46.545455 0 93.090909 0 134.464646-10.343434 25.858586-5.171717 51.717172-15.515152 77.575758-36.20202 20.686869-20.686869 36.20202-41.373737 41.373737-72.40404 10.343434-56.888889 15.515152-118.949495 10.343434-175.838384L584.40404 367.191919c0-62.060606 0-124.121212-10.343434-186.181818C574.060606 149.979798 563.717172 118.949495 537.858586 93.090909zM336.161616 693.010101c5.171717 41.373737 0 82.747475-10.343434 118.949495-15.515152 20.686869-41.373737 25.858586-67.232323 20.686869L258.585859 186.181818c20.686869 0 41.373737 0 56.888889 10.343434 10.343434 5.171717 15.515152 15.515152 20.686869 25.858586C336.161616 253.414141 336.161616 284.444444 336.161616 310.30303L336.161616 693.010101z" p-id="2615"></path><path d="M744.727273 20.686869 744.727273 20.686869l-129.292929 982.626263L879.191919 1003.313131l15.515152-175.838384L982.626263 827.474747l15.515152 175.838384 258.585859 0-144.808081-982.626263L744.727273 20.686869zM889.535354 651.636364c5.171717-87.919192 20.686869-222.383838 46.545455-413.737374 15.515152 165.494949 25.858586 299.959596 41.373737 413.737374L889.535354 651.636364z" p-id="2616"></path><path d="M1530.828283 408.565657c-5.171717-67.232323-25.858586-196.525253-62.060606-387.878788l-232.727273 0 181.010101 625.777778 0 356.848485 237.89899 0 0-356.848485 186.181818-625.777778L1603.232323 20.686869C1567.030303 175.838384 1546.343434 305.131313 1530.828283 408.565657z" p-id="2617"></path></svg>