<?xml version="1.0" standalone="no"?><!DOCTYPE svg PUBLIC "-//W3C//DTD SVG 1.1//EN" "http://www.w3.org/Graphics/SVG/1.1/DTD/svg11.dtd"><svg t="1549613619752" class="icon" style="" viewBox="0 0 2504 1024" version="1.1" xmlns="http://www.w3.org/2000/svg" p-id="5955" xmlns:xlink="http://www.w3.org/1999/xlink" width="489.0625" height="200"><defs><style type="text/css"></style></defs><path d="M2477.252525 512c-20.686869-31.030303-46.545455-51.717172-82.747475-67.232323 41.373737-20.686869 72.40404-46.545455 82.747475-72.40404 15.515152-25.858586 20.686869-62.060606 20.686869-113.777778 0-82.747475-20.686869-149.979798-62.060606-191.353535S2316.929293 0 2208.323232 0c-93.090909 0-165.494949 20.686869-212.040404 62.060606-46.545455 41.373737-72.40404 103.434343-72.40404 191.353535 0 46.545455 5.171717 87.919192 20.686869 118.949495C1965.252525 408.565657 1991.111111 429.252525 2016.969697 444.767677c-46.545455 25.858586-77.575758 62.060606-87.919192 103.434343s-15.515152 93.090909-15.515152 155.151515c0 87.919192 10.343434 149.979798 25.858586 191.353535 20.686869 36.20202 46.545455 67.232323 93.090909 93.090909 41.373737 20.686869 98.262626 36.20202 175.838384 36.20202 77.575758 0 134.464646-10.343434 181.010101-36.20202s72.40404-56.888889 87.919192-93.090909 20.686869-98.262626 20.686869-175.838384C2503.111111 610.262626 2492.767677 537.858586 2477.252525 512zM2172.121212 232.727273c0-31.030303 5.171717-51.717172 10.343434-67.232323 5.171717-10.343434 15.515152-15.515152 31.030303-15.515152 15.515152 0 25.858586 5.171717 36.20202 15.515152 5.171717 10.343434 10.343434 31.030303 10.343434 67.232323l0 67.232323c0 36.20202-5.171717 56.888889-10.343434 67.232323-5.171717 10.343434-15.515152 15.515152-31.030303 15.515152-15.515152 0-25.858586-5.171717-31.030303-15.515152C2172.121212 362.020202 2172.121212 341.333333 2172.121212 310.30303L2172.121212 232.727273zM2260.040404 770.585859c0 41.373737-5.171717 72.40404-10.343434 82.747475s-15.515152 20.686869-36.20202 20.686869c-15.515152 0-31.030303-5.171717-36.20202-20.686869s-10.343434-41.373737-10.343434-82.747475l0-129.292929c0-36.20202 5.171717-62.060606 10.343434-77.575758 5.171717-10.343434 20.686869-15.515152 36.20202-15.515152 15.515152 0 31.030303 5.171717 36.20202 20.686869s10.343434 36.20202 10.343434 77.575758L2260.040404 770.585859z" p-id="5956"></path><path d="M537.858586 93.090909C512 67.232323 480.969697 46.545455 439.59596 41.373737 356.848485 25.858586 274.10101 20.686869 191.353535 20.686869L0 20.686869l0 982.626263 320.646465 0c46.545455 0 93.090909 0 134.464646-10.343434 25.858586-5.171717 51.717172-15.515152 77.575758-36.20202 20.686869-20.686869 36.20202-41.373737 41.373737-72.40404 10.343434-56.888889 15.515152-118.949495 10.343434-175.838384L584.40404 367.191919c0-62.060606 0-124.121212-10.343434-186.181818C574.060606 149.979798 563.717172 118.949495 537.858586 93.090909zM336.161616 693.010101c5.171717 41.373737 0 82.747475-10.343434 118.949495-15.515152 15.515152-41.373737 25.858586-67.232323 20.686869L258.585859 191.353535c20.686869 0 41.373737 0 56.888889 10.343434C320.646465 206.868687 330.989899 212.040404 330.989899 227.555556 336.161616 253.414141 336.161616 284.444444 336.161616 310.30303L336.161616 693.010101z" p-id="5957"></path><path d="M744.727273 20.686869 744.727273 20.686869l-129.292929 982.626263L879.191919 1003.313131l15.515152-175.838384L982.626263 827.474747l15.515152 175.838384 258.585859 0-144.808081-982.626263L744.727273 20.686869zM889.535354 651.636364c5.171717-87.919192 20.686869-222.383838 46.545455-413.737374 15.515152 165.494949 25.858586 299.959596 41.373737 413.737374L889.535354 651.636364z" p-id="5958"></path><path d="M1530.828283 408.565657c-5.171717-67.232323-25.858586-196.525253-62.060606-387.878788l-232.727273 0 181.010101 625.777778 0 356.848485 237.89899 0 0-356.848485 186.181818-625.777778L1603.232323 20.686869C1567.030303 175.838384 1546.343434 305.131313 1530.828283 408.565657z" p-id="5959"></path></svg>