<?xml version="1.0" standalone="no"?><!DOCTYPE svg PUBLIC "-//W3C//DTD SVG 1.1//EN" "http://www.w3.org/Graphics/SVG/1.1/DTD/svg11.dtd"><svg t="1549613532945" class="icon" style="" viewBox="0 0 2512 1024" version="1.1" xmlns="http://www.w3.org/2000/svg" p-id="3407" xmlns:xlink="http://www.w3.org/1999/xlink" width="490.625" height="200"><defs><style type="text/css"></style></defs><path d="M2495.678392 216.120603c-5.145729-36.020101-15.437186-72.040201-41.165829-108.060302-20.582915-36.020101-56.603015-61.748744-97.768844-77.18593C2315.577889 10.291457 2264.120603 5.145729 2197.226131 5.145729c-51.457286 0-97.768844 10.291457-138.934673 25.728643-41.165829 15.437186-72.040201 36.020101-92.623116 66.894472-20.582915 30.874372-36.020101 61.748744-41.165829 92.623116-5.145729 36.020101-10.291457 82.331658-10.291457 154.371859l0 77.18593c0 56.603015 5.145729 102.914573 15.437186 138.934673 10.291457 36.020101 30.874372 61.748744 66.894472 87.477387 36.020101 25.728643 72.040201 36.020101 118.351759 36.020101 36.020101 0 66.894472-5.145729 92.623116-20.582915 25.728643-15.437186 41.165829-30.874372 56.603015-56.603015l0 154.371859c0 36.020101 0 61.748744 0 72.040201 0 10.291457-5.145729 20.582915-15.437186 30.874372-10.291457 5.145729-20.582915 10.291457-30.874372 10.291457-15.437186 0-25.728643-5.145729-36.020101-10.291457-10.291457-10.291457-15.437186-20.582915-15.437186-30.874372 0-10.291457 0-41.165829 0-87.477387l-246.994975 0c0 61.748744 10.291457 113.20603 30.874372 154.371859 20.582915 41.165829 51.457286 72.040201 92.623116 92.623116 46.311558 20.582915 97.768844 30.874372 169.809045 30.874372 56.603015 0 102.914573-10.291457 149.226131-25.728643s77.18593-46.311558 102.914573-77.18593c25.728643-36.020101 41.165829-72.040201 41.165829-113.20603 5.145729-41.165829 5.145729-118.351759 5.145729-231.557789L2511.115578 432.241206C2500.824121 324.180905 2500.824121 252.140704 2495.678392 216.120603zM2253.829146 437.386935c0 36.020101-5.145729 61.748744-10.291457 72.040201-10.291457 10.291457-20.582915 20.582915-36.020101 20.582915-10.291457 0-20.582915-5.145729-30.874372-15.437186-10.291457-10.291457-15.437186-36.020101-15.437186-77.18593L2161.20603 252.140704c0-46.311558 5.145729-72.040201 15.437186-82.331658C2186.934673 159.517588 2197.226131 154.371859 2207.517588 154.371859c15.437186 0 30.874372 5.145729 36.020101 20.582915s10.291457 41.165829 10.291457 82.331658L2253.829146 437.386935z" p-id="3408"></path><path d="M535.155779 97.768844C509.427136 66.894472 478.552764 51.457286 437.386935 41.165829 355.055276 25.728643 272.723618 20.582915 190.39196 25.728643L0 25.728643l0 977.688442 319.035176 0c46.311558 0 92.623116 0 133.788945-10.291457 25.728643-5.145729 51.457286-15.437186 77.18593-36.020101 20.582915-20.582915 36.020101-41.165829 41.165829-66.894472 10.291457-56.603015 15.437186-118.351759 10.291457-174.954774L581.467337 370.492462c0-61.748744 0-123.497487-10.291457-185.246231C571.175879 149.226131 560.884422 118.351759 535.155779 97.768844zM334.472362 689.527638c5.145729 41.165829 0 82.331658-10.291457 118.351759-15.437186 20.582915-41.165829 25.728643-66.894472 20.582915L257.286432 190.39196c20.582915 0 41.165829 0 56.603015 10.291457C319.035176 205.829146 329.326633 216.120603 329.326633 226.41206 334.472362 257.286432 334.472362 283.015075 334.472362 313.889447L334.472362 689.527638z" p-id="3409"></path><path d="M740.984925 25.728643 740.984925 25.728643l-128.643216 977.688442L874.773869 1003.417085l15.437186-174.954774L977.688442 828.462312l15.437186 174.954774 257.286432 0-144.080402-977.688442L740.984925 25.728643zM885.065327 653.507538c5.145729-87.477387 20.582915-221.266332 46.311558-411.658291 15.437186 164.663317 25.728643 298.452261 41.165829 411.658291L885.065327 653.507538z" p-id="3410"></path><path d="M1523.135678 406.512563c-5.145729-66.894472-25.728643-195.537688-61.748744-385.929648l-231.557789 0 180.100503 622.633166 0 355.055276 236.703518 0 0-355.055276 185.246231-622.633166L1595.175879 20.582915C1559.155779 174.954774 1538.572864 303.59799 1523.135678 406.512563z" p-id="3411"></path></svg>