<?xml version="1.0" standalone="no"?><!DOCTYPE svg PUBLIC "-//W3C//DTD SVG 1.1//EN" "http://www.w3.org/Graphics/SVG/1.1/DTD/svg11.dtd"><svg t="1549613530084" class="icon" style="" viewBox="0 0 2514 1024" version="1.1" xmlns="http://www.w3.org/2000/svg" p-id="3294" xmlns:xlink="http://www.w3.org/1999/xlink" width="491.015625" height="200"><defs><style type="text/css"></style></defs><path d="M2430.707071 382.707071c-36.20202-25.858586-72.40404-36.20202-118.949495-36.20202-36.20202 0-67.232323 5.171717-87.919192 20.686869-25.858586 15.515152-41.373737 31.030303-56.888889 56.888889l0-155.151515c0-36.20202 0-62.060606 0-72.40404s5.171717-20.686869 15.515152-31.030303C2192.808081 155.151515 2203.151515 155.151515 2213.494949 155.151515c15.515152 0 25.858586 5.171717 36.20202 10.343434 10.343434 10.343434 15.515152 20.686869 15.515152 31.030303 0 10.343434 0 41.373737 0 87.919192l248.242424 0c0-62.060606-10.343434-113.777778-31.030303-155.151515-20.686869-41.373737-51.717172-72.40404-93.090909-93.090909C2342.787879 10.343434 2291.070707 0 2218.666667 0c-56.888889 0-103.434343 10.343434-149.979798 25.858586-41.373737 15.515152-77.575758 46.545455-103.434343 77.575758-25.858586 36.20202-41.373737 72.40404-41.373737 113.777778-5.171717 41.373737-5.171717 118.949495-5.171717 232.727273l0 134.464646c0 108.606061 0 181.010101 5.171717 217.212121 5.171717 36.20202 15.515152 72.40404 41.373737 108.606061s56.888889 62.060606 98.262626 77.575758c41.373737 20.686869 98.262626 25.858586 160.323232 25.858586 51.717172 0 98.262626-10.343434 139.636364-25.858586 41.373737-15.515152 72.40404-36.20202 93.090909-67.232323 20.686869-31.030303 36.20202-62.060606 41.373737-93.090909 5.171717-36.20202 10.343434-82.747475 10.343434-155.151515l0-77.575758c0-56.888889-5.171717-103.434343-15.515152-139.636364C2487.59596 434.424242 2466.909091 408.565657 2430.707071 382.707071zM2265.212121 775.757576c0 46.545455-5.171717 72.40404-15.515152 82.747475-10.343434 10.343434-20.686869 15.515152-31.030303 15.515152-15.515152 0-31.030303-5.171717-36.20202-20.686869s-10.343434-41.373737-10.343434-82.747475l0-175.838384c0-36.20202 5.171717-62.060606 10.343434-72.40404 10.343434-10.343434 20.686869-20.686869 36.20202-20.686869 15.515152 0 31.030303 5.171717 36.20202 20.686869 5.171717 15.515152 10.343434 36.20202 10.343434 72.40404L2265.212121 775.757576z" p-id="3295"></path><path d="M537.858586 93.090909C512 67.232323 480.969697 46.545455 439.59596 41.373737 356.848485 25.858586 274.10101 20.686869 191.353535 20.686869L0 20.686869l0 982.626263 320.646465 0c46.545455 0 93.090909 0 134.464646-10.343434 25.858586-5.171717 51.717172-15.515152 77.575758-36.20202 20.686869-20.686869 36.20202-41.373737 41.373737-72.40404 10.343434-56.888889 15.515152-118.949495 10.343434-175.838384L584.40404 367.191919c0-62.060606 0-124.121212-10.343434-186.181818C574.060606 149.979798 563.717172 118.949495 537.858586 93.090909zM336.161616 693.010101c5.171717 41.373737 0 82.747475-10.343434 118.949495-15.515152 20.686869-41.373737 25.858586-67.232323 20.686869L258.585859 191.353535c20.686869 0 41.373737 0 56.888889 10.343434C320.646465 206.868687 330.989899 217.212121 330.989899 227.555556 336.161616 253.414141 336.161616 284.444444 336.161616 310.30303L336.161616 693.010101z" p-id="3296"></path><path d="M744.727273 20.686869 744.727273 20.686869l-129.292929 982.626263L879.191919 1003.313131l15.515152-175.838384L982.626263 827.474747l15.515152 175.838384 258.585859 0-144.808081-982.626263L744.727273 20.686869zM889.535354 651.636364c5.171717-87.919192 20.686869-222.383838 46.545455-413.737374 15.515152 165.494949 25.858586 299.959596 41.373737 413.737374L889.535354 651.636364z" p-id="3297"></path><path d="M1530.828283 408.565657c-5.171717-67.232323-25.858586-196.525253-62.060606-387.878788l-232.727273 0 181.010101 625.777778 0 356.848485 237.89899 0 0-356.848485 186.181818-625.777778L1603.232323 20.686869C1567.030303 175.838384 1546.343434 305.131313 1530.828283 408.565657z" p-id="3298"></path></svg>