<?xml version="1.0" standalone="no"?><!DOCTYPE svg PUBLIC "-//W3C//DTD SVG 1.1//EN" "http://www.w3.org/Graphics/SVG/1.1/DTD/svg11.dtd"><svg t="1549613607192" class="icon" style="" viewBox="0 0 2949 1024" version="1.1" xmlns="http://www.w3.org/2000/svg" p-id="5499" xmlns:xlink="http://www.w3.org/1999/xlink" width="575.9765625" height="200"><defs><style type="text/css"></style></defs><path d="M1967.157895 161.684211l0 118.568421 26.947368 0c59.284211 0 97.010526 5.389474 113.178947 10.778947 16.168421 10.778947 26.947368 21.557895 32.336842 37.726316 5.389474 16.168421 5.389474 64.673684 5.389474 145.515789L2145.010526 1024l258.694737 0L2403.705263 0l-150.905263 0C2182.736842 80.842105 2091.115789 134.736842 1967.157895 161.684211z" p-id="5500"></path><path d="M2457.6 0 2457.6 183.242105 2710.905263 183.242105 2533.052632 1024 2786.357895 1024 2948.042105 220.968421 2948.042105 0Z" p-id="5501"></path><path d="M560.505263 75.452632C533.557895 48.505263 501.221053 26.947368 458.105263 16.168421 371.873684 0 285.642105-5.389474 199.410526 0L0 0l0 1024 334.147368 0c48.505263 0 97.010526 0 140.126316-10.778947 26.947368-5.389474 53.894737-16.168421 80.842105-37.726316 21.557895-21.557895 37.726316-43.115789 43.115789-75.452632 10.778947-59.284211 16.168421-123.957895 10.778947-183.242105L609.010526 361.094737c0-64.673684 0-129.347368-10.778947-194.021053C598.231579 129.347368 587.452632 102.4 560.505263 75.452632zM350.315789 700.631579c5.389474 43.115789 0 86.231579-10.778947 123.957895-16.168421 16.168421-43.115789 26.947368-70.063158 21.557895L269.473684 172.463158c21.557895 0 43.115789 0 59.284211 10.778947C334.147368 188.631579 344.926316 199.410526 344.926316 215.578947 350.315789 242.526316 350.315789 269.473684 350.315789 301.810526L350.315789 700.631579z" p-id="5502"></path><path d="M776.084211 0 776.084211 0l-134.736842 1024L916.210526 1024l16.168421-183.242105L1024 840.757895l16.168421 183.242105 269.473684 0L1158.736842 0 776.084211 0zM926.989474 657.515789c5.389474-91.621053 21.557895-231.747368 48.505263-431.157895 16.168421 172.463158 26.947368 312.589474 43.115789 431.157895L926.989474 657.515789z" p-id="5503"></path><path d="M1595.284211 404.210526c-5.389474-70.063158-26.947368-204.8-64.673684-404.210526l-242.526316 0 188.631579 652.126316L1476.715789 1024l247.915789 0 0-371.873684L1913.263158 0 1670.736842 0C1633.010526 161.684211 1611.452632 296.421053 1595.284211 404.210526z" p-id="5504"></path></svg>