<?xml version="1.0" standalone="no"?><!DOCTYPE svg PUBLIC "-//W3C//DTD SVG 1.1//EN" "http://www.w3.org/Graphics/SVG/1.1/DTD/svg11.dtd"><svg t="1549613507306" class="icon" style="" viewBox="0 0 2979 1024" version="1.1" xmlns="http://www.w3.org/2000/svg" p-id="2726" xmlns:xlink="http://www.w3.org/1999/xlink" width="581.8359375" height="200"><defs><style type="text/css"></style></defs><path d="M2301.414141 20.686869l0 982.626263-248.242424 0L2053.171717 475.79798c0-77.575758 0-124.121212-5.171717-139.636364-5.171717-15.515152-15.515152-25.858586-31.030303-36.20202-15.515152-10.343434-51.717172-10.343434-108.606061-10.343434l-25.858586 0L1882.505051 175.838384c118.949495-25.858586 206.868687-77.575758 268.929293-155.151515L2301.414141 20.686869z" p-id="2727"></path><path d="M2947.878788 512c-20.686869-31.030303-46.545455-51.717172-82.747475-67.232323 41.373737-20.686869 72.40404-46.545455 82.747475-72.40404 15.515152-25.858586 20.686869-62.060606 20.686869-113.777778 0-82.747475-20.686869-149.979798-62.060606-191.353535S2792.727273 0 2684.121212 0c-93.090909 0-165.494949 20.686869-212.040404 62.060606-46.545455 41.373737-72.40404 103.434343-72.40404 191.353535 0 46.545455 5.171717 87.919192 20.686869 118.949495 15.515152 31.030303 36.20202 56.888889 67.232323 67.232323-46.545455 25.858586-77.575758 62.060606-87.919192 103.434343s-15.515152 93.090909-15.515152 155.151515c0 87.919192 10.343434 149.979798 25.858586 191.353535 20.686869 36.20202 46.545455 67.232323 93.090909 93.090909 41.373737 20.686869 98.262626 36.20202 175.838384 36.20202 77.575758 0 134.464646-10.343434 181.010101-36.20202s72.40404-56.888889 87.919192-93.090909 20.686869-98.262626 20.686869-175.838384C2978.909091 610.262626 2968.565657 537.858586 2947.878788 512zM2642.747475 232.727273c0-31.030303 5.171717-51.717172 10.343434-67.232323 5.171717-10.343434 15.515152-15.515152 31.030303-15.515152 15.515152 0 25.858586 5.171717 36.20202 15.515152 5.171717 10.343434 10.343434 31.030303 10.343434 67.232323l0 67.232323c0 36.20202-5.171717 56.888889-10.343434 67.232323-5.171717 10.343434-15.515152 15.515152-31.030303 15.515152-15.515152 0-25.858586-5.171717-31.030303-15.515152-5.171717-10.343434-10.343434-31.030303-10.343434-62.060606L2647.919192 232.727273zM2730.666667 770.585859c0 41.373737-5.171717 72.40404-10.343434 82.747475s-15.515152 20.686869-36.20202 20.686869c-15.515152 0-31.030303-5.171717-36.20202-20.686869S2637.575758 811.959596 2637.575758 770.585859l0-129.292929c0-36.20202 5.171717-62.060606 10.343434-77.575758 5.171717-10.343434 20.686869-15.515152 36.20202-15.515152 15.515152 0 31.030303 5.171717 36.20202 20.686869s10.343434 36.20202 10.343434 77.575758L2730.666667 770.585859z" p-id="2728"></path><path d="M584.40404 181.010101c-5.171717-31.030303-20.686869-62.060606-41.373737-87.919192C512 67.232323 480.969697 46.545455 439.59596 36.20202 356.848485 25.858586 274.10101 15.515152 191.353535 20.686869L0 20.686869l0 982.626263 320.646465 0c46.545455 0 93.090909 0 134.464646-10.343434 25.858586-5.171717 51.717172-15.515152 77.575758-36.20202 20.686869-20.686869 36.20202-41.373737 41.373737-72.40404 10.343434-56.888889 15.515152-118.949495 10.343434-175.838384L584.40404 367.191919C594.747475 305.131313 589.575758 243.070707 584.40404 181.010101zM336.161616 693.010101c5.171717 41.373737 0 82.747475-10.343434 118.949495-15.515152 20.686869-41.373737 25.858586-67.232323 20.686869L258.585859 186.181818c20.686869 0 41.373737 0 56.888889 10.343434 10.343434 5.171717 15.515152 15.515152 20.686869 25.858586C336.161616 253.414141 336.161616 284.444444 336.161616 310.30303L336.161616 693.010101z" p-id="2729"></path><path d="M1111.919192 20.686869l-367.191919 0 0 0-129.292929 982.626263L879.191919 1003.313131l15.515152-175.838384L982.626263 827.474747l15.515152 175.838384 258.585859 0L1111.919192 20.686869zM889.535354 651.636364c5.171717-87.919192 20.686869-222.383838 46.545455-413.737374 15.515152 165.494949 25.858586 299.959596 41.373737 413.737374L889.535354 651.636364z" p-id="2730"></path><path d="M1603.232323 20.686869c-31.030303 155.151515-56.888889 284.444444-72.40404 387.878788-5.171717-67.232323-25.858586-196.525253-62.060606-387.878788l-232.727273 0 181.010101 625.777778 0 356.848485 237.89899 0 0-356.848485 186.181818-625.777778L1603.232323 20.686869 1603.232323 20.686869z" p-id="2731"></path></svg>