<?xml version="1.0" standalone="no"?><!DOCTYPE svg PUBLIC "-//W3C//DTD SVG 1.1//EN" "http://www.w3.org/Graphics/SVG/1.1/DTD/svg11.dtd"><svg t="1549613538177" class="icon" style="" viewBox="0 0 3146 1024" version="1.1" xmlns="http://www.w3.org/2000/svg" p-id="3634" xmlns:xlink="http://www.w3.org/1999/xlink" width="614.453125" height="200"><defs><style type="text/css"></style></defs><path d="M2510.112821 262.564103c0-73.517949-26.25641-136.533333-78.769231-189.046154C2384.082051 26.25641 2310.564103 0 2210.789744 0c-52.512821 0-94.523077 10.502564-131.282051 26.25641-36.758974 15.753846-68.266667 42.010256-89.271795 73.517949-21.005128 31.507692-36.758974 63.015385-42.010256 94.523077C1942.974359 225.805128 1942.974359 267.815385 1942.974359 325.579487l0 36.758974 225.805128 0L2168.779487 267.815385c0-42.010256 5.251282-73.517949 15.753846-89.271795S2200.287179 157.538462 2221.292308 157.538462s31.507692 5.251282 42.010256 21.005128c10.502564 15.753846 15.753846 31.507692 15.753846 63.015385 0 36.758974-15.753846 84.020513-47.261538 147.035897-31.507692 63.015385-126.030769 225.805128-288.820513 493.620513l0 141.784615 551.384615 0 0-168.041026-273.066667 0c141.784615-204.8 225.805128-341.333333 252.061538-404.348718C2499.610256 383.34359 2510.112821 320.328205 2510.112821 262.564103z" p-id="3635"></path><path d="M3103.507692 446.358974c26.25641-63.015385 42.010256-126.030769 42.010256-183.794872 0-73.517949-26.25641-136.533333-78.769231-189.046154-52.512821-47.261538-126.030769-73.517949-225.805128-73.517949-52.512821 0-94.523077 10.502564-131.282051 26.25641C2678.153846 42.010256 2651.897436 68.266667 2625.641026 99.774359c-21.005128 31.507692-36.758974 63.015385-42.010256 94.523077-5.251282 31.507692-10.502564 78.769231-10.502564 131.282051l0 36.758974 225.805128 0L2798.933333 267.815385c0-42.010256 5.251282-73.517949 15.753846-89.271795S2835.692308 157.538462 2856.697436 157.538462s31.507692 5.251282 42.010256 21.005128c10.502564 15.753846 15.753846 31.507692 15.753846 63.015385 0 36.758974-15.753846 84.020513-47.261538 147.035897-31.507692 63.015385-126.030769 225.805128-288.820513 493.620513l0 141.784615 551.384615 0 0-168.041026-273.066667 0C2993.230769 645.907692 3077.251282 509.374359 3103.507692 446.358974z" p-id="3636"></path><path d="M546.133333 99.774359C519.876923 68.266667 488.369231 47.261538 446.358974 42.010256 362.338462 26.25641 278.317949 21.005128 194.297436 26.25641L0 26.25641l0 997.74359 325.579487 0c47.261538 0 94.523077 0 136.533333-10.502564 26.25641-5.251282 52.512821-15.753846 78.769231-36.758974 21.005128-21.005128 36.758974-42.010256 42.010256-73.517949 10.502564-57.764103 15.753846-120.779487 10.502564-178.54359L593.394872 372.841026c0-63.015385 0-126.030769-10.502564-189.046154C582.892308 152.287179 572.389744 120.779487 546.133333 99.774359zM341.333333 703.671795c5.251282 42.010256 0 84.020513-10.502564 120.779487-15.753846 21.005128-42.010256 26.25641-68.266667 21.005128L262.564103 194.297436c21.005128 0 42.010256 0 57.764103 10.502564C325.579487 210.051282 336.082051 220.553846 336.082051 231.05641c5.251282 26.25641 5.251282 57.764103 5.251282 89.271795L341.333333 703.671795z" p-id="3637"></path><path d="M756.184615 26.25641 756.184615 26.25641l-131.282051 997.74359L892.717949 1024l15.753846-178.54359L997.74359 845.45641l15.753846 178.54359 262.564103 0-147.035897-997.74359L756.184615 26.25641zM903.220513 666.912821c5.251282-89.271795 21.005128-225.805128 47.261538-420.102564 15.753846 168.041026 26.25641 304.574359 42.010256 420.102564L903.220513 666.912821z" p-id="3638"></path><path d="M1554.379487 414.851282c-5.251282-68.266667-26.25641-199.548718-63.015385-393.846154l-236.307692 0 183.794872 635.405128 0 362.338462 241.558974 0 0-362.338462 189.046154-635.405128L1627.897436 21.005128C1591.138462 178.54359 1570.133333 309.825641 1554.379487 414.851282z" p-id="3639"></path></svg>