<?xml version="1.0" standalone="no"?><!DOCTYPE svg PUBLIC "-//W3C//DTD SVG 1.1//EN" "http://www.w3.org/Graphics/SVG/1.1/DTD/svg11.dtd"><svg t="1549613540960" class="icon" style="" viewBox="0 0 3094 1024" version="1.1" xmlns="http://www.w3.org/2000/svg" p-id="3748" xmlns:xlink="http://www.w3.org/1999/xlink" width="604.296875" height="200"><defs><style type="text/css"></style></defs><path d="M1967.157895 161.684211l0 118.568421 26.947368 0c59.284211 0 97.010526 5.389474 113.178947 10.778947 16.168421 10.778947 26.947368 21.557895 32.336842 37.726316 5.389474 16.168421 5.389474 64.673684 5.389474 145.515789L2145.010526 1024l258.694737 0L2403.705263 0l-150.905263 0C2182.736842 80.842105 2091.115789 134.736842 1967.157895 161.684211z" p-id="3749"></path><path d="M3018.105263 668.294737 3018.105263 0l-339.536842 0-220.968421 668.294737 0 172.463158 301.810526 0L2759.410526 1024 3018.105263 1024l0-183.242105 75.452632 0 0-172.463158L3018.105263 668.294737zM2764.8 668.294737l-113.178947 0 113.178947-436.547368L2764.8 668.294737z" p-id="3750"></path><path d="M560.505263 75.452632C533.557895 48.505263 501.221053 26.947368 458.105263 16.168421 371.873684 0 285.642105-5.389474 199.410526 0L0 0l0 1024 334.147368 0c48.505263 0 97.010526 0 140.126316-10.778947 26.947368-5.389474 53.894737-16.168421 80.842105-37.726316 21.557895-21.557895 37.726316-43.115789 43.115789-70.063158 10.778947-59.284211 16.168421-123.957895 10.778947-183.242105L609.010526 361.094737c0-64.673684 0-129.347368-10.778947-194.021053C598.231579 129.347368 587.452632 102.4 560.505263 75.452632zM350.315789 700.631579c5.389474 43.115789 0 86.231579-10.778947 123.957895-16.168421 21.557895-43.115789 26.947368-70.063158 21.557895L269.473684 172.463158c21.557895 0 43.115789 0 59.284211 10.778947 10.778947 5.389474 16.168421 16.168421 21.557895 26.947368C350.315789 242.526316 350.315789 269.473684 350.315789 301.810526L350.315789 700.631579z" p-id="3751"></path><path d="M776.084211 0 776.084211 0l-134.736842 1024L916.210526 1024l16.168421-183.242105L1024 840.757895l16.168421 183.242105 269.473684 0L1158.736842 0 776.084211 0zM926.989474 657.515789c5.389474-91.621053 21.557895-231.747368 48.505263-431.157895 16.168421 172.463158 26.947368 312.589474 43.115789 431.157895L926.989474 657.515789z" p-id="3752"></path><path d="M1595.284211 404.210526c-5.389474-70.063158-26.947368-204.8-64.673684-404.210526l-242.526316 0 188.631579 652.126316L1476.715789 1024l247.915789 0 0-371.873684L1913.263158 0 1670.736842 0C1633.010526 161.684211 1611.452632 291.031579 1595.284211 404.210526z" p-id="3753"></path></svg>