<?xml version="1.0" standalone="no"?><!DOCTYPE svg PUBLIC "-//W3C//DTD SVG 1.1//EN" "http://www.w3.org/Graphics/SVG/1.1/DTD/svg11.dtd"><svg t="1549613581635" class="icon" style="" viewBox="0 0 3088 1024" version="1.1" xmlns="http://www.w3.org/2000/svg" p-id="4657" xmlns:xlink="http://www.w3.org/1999/xlink" width="603.125" height="200"><defs><style type="text/css"></style></defs><path d="M2447.36 256c0-71.68-25.6-133.12-76.8-184.32C2324.48 25.6 2252.8 0 2155.52 0c-51.2 0-92.16 10.24-128 25.6-35.84 15.36-66.56 40.96-87.04 71.68-20.48 30.72-35.84 61.44-40.96 92.16C1894.4 220.16 1894.4 261.12 1894.4 317.44l0 35.84 220.16 0L2114.56 261.12c0-40.96 5.12-71.68 15.36-87.04S2145.28 153.6 2165.76 153.6s30.72 5.12 40.96 20.48c10.24 15.36 15.36 30.72 15.36 61.44 0 35.84-15.36 81.92-46.08 143.36-30.72 61.44-122.88 220.16-281.6 481.28l0 138.24 537.6 0 0-163.84-266.24 0c138.24-199.68 220.16-332.8 245.76-394.24C2437.12 368.64 2447.36 312.32 2447.36 256z" p-id="4658"></path><path d="M3061.76 501.76c-20.48-30.72-46.08-51.2-81.92-61.44 35.84-20.48 61.44-40.96 76.8-66.56C3072 353.28 3082.24 312.32 3082.24 256c0-81.92-20.48-143.36-61.44-189.44C2974.72 25.6 2897.92 0 2780.16 0c-92.16 0-158.72 15.36-204.8 51.2-40.96 30.72-61.44 97.28-61.44 189.44l0 81.92 245.76 0L2759.68 240.64c0-35.84 5.12-61.44 10.24-71.68C2775.04 158.72 2785.28 153.6 2800.64 153.6c15.36 0 25.6 5.12 30.72 15.36 5.12 10.24 10.24 35.84 10.24 66.56l0 56.32c0 30.72-5.12 56.32-10.24 71.68s-15.36 25.6-30.72 30.72c-15.36 5.12-51.2 5.12-107.52 5.12l0 143.36c46.08 0 76.8 5.12 97.28 10.24 15.36 5.12 30.72 15.36 35.84 35.84 10.24 15.36 10.24 46.08 10.24 81.92l0 66.56c0 61.44-5.12 97.28-10.24 112.64s-20.48 20.48-35.84 20.48c-15.36 0-30.72-5.12-35.84-15.36-5.12-10.24-5.12-35.84-5.12-81.92l0-158.72-245.76 0 0 76.8c0 92.16 5.12 158.72 20.48 194.56 15.36 35.84 40.96 71.68 87.04 97.28 46.08 25.6 102.4 40.96 179.2 40.96 66.56 0 122.88-10.24 168.96-35.84 40.96-20.48 71.68-56.32 92.16-97.28 15.36-40.96 25.6-102.4 25.6-179.2C3087.36 599.04 3082.24 532.48 3061.76 501.76z" p-id="4659"></path><path d="M532.48 92.16C506.88 66.56 476.16 46.08 435.2 40.96 353.28 25.6 271.36 20.48 189.44 20.48L0 20.48l0 972.8 317.44 0c46.08 0 92.16 0 133.12-10.24 25.6-5.12 51.2-15.36 76.8-35.84 20.48-20.48 35.84-40.96 40.96-66.56 10.24-56.32 15.36-117.76 10.24-174.08L578.56 363.52c0-61.44 0-122.88-10.24-184.32C568.32 148.48 558.08 117.76 532.48 92.16zM332.8 686.08c5.12 40.96 0 81.92-10.24 117.76-15.36 20.48-40.96 25.6-66.56 20.48L256 189.44c20.48 0 40.96 0 56.32 10.24C317.44 204.8 327.68 215.04 327.68 225.28 332.8 250.88 332.8 281.6 332.8 307.2L332.8 686.08z" p-id="4660"></path><path d="M737.28 20.48 737.28 20.48l-128 972.8L870.4 993.28l15.36-174.08L972.8 819.2l15.36 174.08 256 0-143.36-972.8L737.28 20.48zM880.64 645.12c5.12-87.04 20.48-220.16 46.08-409.6 15.36 163.84 25.6 296.96 40.96 409.6L880.64 645.12z" p-id="4661"></path><path d="M1515.52 404.48c-5.12-66.56-25.6-194.56-61.44-384l-230.4 0 179.2 619.52 0 353.28 235.52 0 0-353.28 184.32-619.52L1587.2 20.48C1551.36 174.08 1530.88 302.08 1515.52 404.48z" p-id="4662"></path></svg>