<?xml version="1.0" standalone="no"?><!DOCTYPE svg PUBLIC "-//W3C//DTD SVG 1.1//EN" "http://www.w3.org/Graphics/SVG/1.1/DTD/svg11.dtd"><svg t="1549613622966" class="icon" style="" viewBox="0 0 3000 1024" version="1.1" xmlns="http://www.w3.org/2000/svg" p-id="6068" xmlns:xlink="http://www.w3.org/1999/xlink" width="585.9375" height="200"><defs><style type="text/css"></style></defs><path d="M1887.676768 175.838384l0 113.777778 25.858586 0c56.888889 0 93.090909 5.171717 108.606061 10.343434 15.515152 10.343434 25.858586 20.686869 31.030303 36.20202 5.171717 15.515152 5.171717 62.060606 5.171717 139.636364l0 527.515152 248.242424 0 0-982.626263-144.808081 0C2094.545455 98.262626 2006.626263 149.979798 1887.676768 175.838384z" p-id="6069"></path><path d="M2984.080808 212.040404c-5.171717-36.20202-15.515152-72.40404-41.373737-108.606061-20.686869-36.20202-56.888889-62.060606-98.262626-77.575758C2803.070707 10.343434 2746.181818 0 2684.121212 0c-51.717172 0-98.262626 10.343434-139.636364 25.858586-41.373737 15.515152-72.40404 36.20202-93.090909 67.232323-20.686869 31.030303-36.20202 62.060606-41.373737 93.090909-5.171717 36.20202-10.343434 82.747475-10.343434 155.151515L2399.676768 413.737374c0 56.888889 5.171717 103.434343 15.515152 139.636364 10.343434 36.20202 31.030303 62.060606 67.232323 87.919192 36.20202 25.858586 72.40404 36.20202 118.949495 36.20202 36.20202 0 67.232323-5.171717 93.090909-20.686869 25.858586-15.515152 41.373737-31.030303 56.888889-56.888889l0 155.151515c0 36.20202 0 62.060606 0 72.40404 0 10.343434-5.171717 20.686869-15.515152 31.030303-10.343434 5.171717-20.686869 10.343434-31.030303 10.343434-15.515152 0-25.858586-5.171717-36.20202-10.343434-10.343434-10.343434-15.515152-20.686869-15.515152-31.030303 0-10.343434 0-41.373737 0-87.919192l-248.242424 0c0 62.060606 10.343434 113.777778 31.030303 155.151515 20.686869 41.373737 51.717172 72.40404 93.090909 93.090909 46.545455 20.686869 98.262626 31.030303 170.666667 31.030303 56.888889 0 103.434343-10.343434 149.979798-25.858586s77.575758-46.545455 103.434343-77.575758c25.858586-36.20202 41.373737-72.40404 41.373737-113.777778 5.171717-41.373737 5.171717-118.949495 5.171717-232.727273L2999.59596 434.424242C2989.252525 325.818182 2984.080808 253.414141 2984.080808 212.040404zM2741.010101 434.424242c0 36.20202-5.171717 62.060606-10.343434 72.40404-10.343434 10.343434-20.686869 20.686869-36.20202 20.686869-10.343434 0-20.686869-5.171717-31.030303-15.515152-10.343434-10.343434-15.515152-36.20202-15.515152-77.575758L2647.919192 248.242424c0-46.545455 5.171717-72.40404 15.515152-82.747475 10.343434-10.343434 20.686869-15.515152 31.030303-15.515152 15.515152 0 31.030303 5.171717 36.20202 20.686869S2741.010101 212.040404 2741.010101 258.585859L2741.010101 434.424242z" p-id="6070"></path><path d="M537.858586 93.090909C512 67.232323 480.969697 46.545455 439.59596 36.20202 356.848485 25.858586 274.10101 15.515152 191.353535 20.686869L0 20.686869l0 982.626263 320.646465 0c46.545455 0 93.090909 0 134.464646-10.343434 25.858586-5.171717 51.717172-15.515152 77.575758-36.20202 20.686869-20.686869 36.20202-41.373737 41.373737-72.40404 10.343434-56.888889 15.515152-118.949495 10.343434-175.838384L584.40404 367.191919c0-62.060606 0-124.121212-10.343434-186.181818C574.060606 149.979798 563.717172 118.949495 537.858586 93.090909zM336.161616 693.010101c5.171717 41.373737 0 82.747475-10.343434 118.949495-15.515152 20.686869-41.373737 25.858586-67.232323 20.686869L258.585859 186.181818c20.686869 0 41.373737 0 56.888889 10.343434 10.343434 5.171717 15.515152 15.515152 20.686869 25.858586C336.161616 253.414141 336.161616 284.444444 336.161616 310.30303L336.161616 693.010101z" p-id="6071"></path><path d="M744.727273 20.686869 744.727273 20.686869l-129.292929 982.626263L879.191919 1003.313131l15.515152-175.838384L982.626263 827.474747l15.515152 175.838384 258.585859 0-144.808081-982.626263L744.727273 20.686869zM889.535354 651.636364c5.171717-87.919192 20.686869-222.383838 46.545455-413.737374 15.515152 165.494949 25.858586 299.959596 41.373737 413.737374L889.535354 651.636364z" p-id="6072"></path><path d="M1530.828283 408.565657c-5.171717-67.232323-25.858586-196.525253-62.060606-387.878788l-232.727273 0 181.010101 625.777778 0 356.848485 237.89899 0 0-356.848485 186.181818-625.777778L1603.232323 20.686869C1567.030303 175.838384 1546.343434 305.131313 1530.828283 408.565657z" p-id="6073"></path></svg>