<?xml version="1.0" standalone="no"?><!DOCTYPE svg PUBLIC "-//W3C//DTD SVG 1.1//EN" "http://www.w3.org/Graphics/SVG/1.1/DTD/svg11.dtd"><svg t="1549613562985" class="icon" style="" viewBox="0 0 2392 1024" version="1.1" xmlns="http://www.w3.org/2000/svg" p-id="4090" xmlns:xlink="http://www.w3.org/1999/xlink" width="467.1875" height="200"><defs><style type="text/css"></style></defs><path d="M557.570681 80.418848C530.764398 53.612565 498.596859 32.167539 455.706806 21.445026 369.926702 10.722513 284.146597 5.361257 198.366492 5.361257L0 5.361257l0 1018.638743 332.397906 0c48.251309 0 96.502618 0 139.39267-10.722513 26.806283-5.361257 53.612565-16.08377 80.418848-37.528796 21.445026-21.445026 37.528796-42.890052 42.890052-75.057592 10.722513-58.973822 16.08377-123.308901 10.722513-182.282723L605.82199 364.565445c0-64.335079 0-128.670157-10.722513-193.005236C595.099476 139.39267 584.376963 107.225131 557.570681 80.418848zM348.481675 702.324607c5.361257 42.890052 0 85.780105-10.722513 123.308901-16.08377 16.08377-42.890052 26.806283-69.696335 21.445026L268.062827 182.282723c21.445026 0 42.890052 0 58.973822 10.722513C332.397906 193.005236 343.120419 203.727749 343.120419 219.811518c5.361257 26.806283 5.361257 58.973822 5.361257 85.780105L348.481675 702.324607z" p-id="4091"></path><path d="M772.020942 5.361257 772.020942 5.361257l-134.031414 1018.638743L911.413613 1024l16.08377-182.282723L1018.638743 841.717277l16.08377 182.282723 268.062827 0L1152.670157 5.361257 772.020942 5.361257zM922.136126 659.434555c5.361257-91.141361 21.445026-230.534031 48.251309-428.900524 16.08377 171.560209 26.806283 310.95288 42.890052 428.900524L922.136126 659.434555z" p-id="4092"></path><path d="M1586.931937 407.455497c-5.361257-69.696335-26.806283-203.727749-64.335079-402.094241l-241.256545 0 187.643979 648.712042L1468.984293 1024l246.617801 0 0-369.926702L1903.246073 5.361257 1661.989529 5.361257C1624.460733 166.198953 1603.015707 300.230366 1586.931937 407.455497z" p-id="4093"></path><path d="M2235.643979 0c-64.335079 80.418848-155.47644 139.39267-278.78534 160.837696l0 117.947644 26.806283 0c58.973822 0 96.502618 5.361257 112.586387 10.722513 16.08377 10.722513 26.806283 21.445026 32.167539 37.528796 5.361257 16.08377 5.361257 64.335079 5.361257 144.753927L2133.780105 1024l257.340314 0 0-1018.638743L2235.643979 5.361257z" p-id="4094"></path></svg>