<?xml version="1.0" standalone="no"?><!DOCTYPE svg PUBLIC "-//W3C//DTD SVG 1.1//EN" "http://www.w3.org/Graphics/SVG/1.1/DTD/svg11.dtd"><svg t="1549613615113" class="icon" style="" viewBox="0 0 3150 1024" version="1.1" xmlns="http://www.w3.org/2000/svg" p-id="5841" xmlns:xlink="http://www.w3.org/1999/xlink" width="615.234375" height="200"><defs><style type="text/css"></style></defs><path d="M2372.180905 442.532663c36.020101-20.582915 61.748744-41.165829 77.18593-66.894472C2464.80402 349.909548 2469.949749 313.889447 2469.949749 257.286432c0-82.331658-20.582915-144.080402-61.748744-190.39196C2372.180905 20.582915 2289.849246 0 2176.643216 0c-92.623116 0-159.517588 15.437186-205.829146 51.457286C1929.648241 82.331658 1903.919598 144.080402 1903.919598 236.703518l0 82.331658 246.994975 0L2150.914573 241.849246c0-36.020101 5.145729-61.748744 10.291457-72.040201C2166.351759 159.517588 2176.643216 154.371859 2197.226131 154.371859c15.437186 0 25.728643 5.145729 30.874372 15.437186 5.145729 10.291457 10.291457 36.020101 10.291457 66.894472l0 56.603015c0 30.874372-5.145729 56.603015-10.291457 72.040201-5.145729 15.437186-15.437186 20.582915-30.874372 25.728643-15.437186 5.145729-51.457286 5.145729-108.060302 5.145729l0 144.080402c46.311558 0 77.18593 5.145729 97.768844 10.291457 15.437186 5.145729 30.874372 15.437186 36.020101 36.020101 10.291457 15.437186 10.291457 46.311558 10.291457 82.331658l0 66.894472c0 61.748744-5.145729 97.768844-10.291457 113.20603-5.145729 15.437186-20.582915 20.582915-36.020101 20.582915-15.437186 0-30.874372-5.145729-36.020101-15.437186-5.145729-10.291457-5.145729-36.020101-5.145729-82.331658l0-159.517588L1903.919598 612.341709l0 77.18593c0 92.623116 5.145729 159.517588 20.582915 195.537688 15.437186 36.020101 41.165829 72.040201 87.477387 97.768844s102.914573 41.165829 180.100503 41.165829c66.894472 0 123.497487-10.291457 169.809045-36.020101 41.165829-20.582915 72.040201-56.603015 92.623116-97.768844 15.437186-41.165829 25.728643-102.914573 25.728643-180.100503 0-102.914573-10.291457-169.809045-25.728643-200.683417C2439.075377 478.552764 2408.201005 457.969849 2372.180905 442.532663z" p-id="5842"></path><path d="M3133.748744 190.39196c-5.145729-36.020101-20.582915-66.894472-41.165829-92.623116s-51.457286-51.457286-92.623116-66.894472C2953.648241 10.291457 2907.336683 0 2855.879397 0c-66.894472 0-123.497487 15.437186-169.809045 41.165829S2608.884422 102.914573 2593.447236 149.226131 2572.864322 262.432161 2572.864322 349.909548l0 339.61809c0 66.894472 5.145729 118.351759 15.437186 149.226131 10.291457 30.874372 25.728643 61.748744 51.457286 92.623116 20.582915 30.874372 51.457286 51.457286 92.623116 61.748744 41.165829 15.437186 87.477387 20.582915 144.080402 20.582915 46.311558 0 82.331658-5.145729 118.351759-20.582915 36.020101-15.437186 66.894472-36.020101 92.623116-61.748744 25.728643-30.874372 41.165829-61.748744 51.457286-92.623116 10.291457-36.020101 10.291457-87.477387 10.291457-164.663317L3149.18593 349.909548C3149.18593 277.869347 3144.040201 221.266332 3133.748744 190.39196zM2897.045226 756.422111c0 46.311558 0 77.18593-5.145729 92.623116-5.145729 15.437186-15.437186 20.582915-36.020101 20.582915-20.582915 0-30.874372-5.145729-36.020101-15.437186-5.145729-10.291457-10.291457-46.311558-10.291457-102.914573L2809.567839 267.577889c0-51.457286 5.145729-82.331658 10.291457-97.768844 5.145729-15.437186 15.437186-20.582915 36.020101-20.582915 20.582915 0 30.874372 5.145729 36.020101 20.582915 5.145729 15.437186 5.145729 46.311558 5.145729 97.768844L2897.045226 756.422111 2897.045226 756.422111z" p-id="5843"></path><path d="M535.155779 92.623116C509.427136 66.894472 478.552764 46.311558 437.386935 36.020101 355.055276 25.728643 272.723618 20.582915 190.39196 20.582915L0 20.582915l0 977.688442 319.035176 0c46.311558 0 92.623116 0 133.788945-10.291457 25.728643-5.145729 51.457286-15.437186 77.18593-36.020101 20.582915-20.582915 36.020101-41.165829 41.165829-72.040201 10.291457-56.603015 10.291457-113.20603 10.291457-174.954774L581.467337 365.346734c0-61.748744 0-123.497487-10.291457-185.246231C571.175879 149.226131 560.884422 118.351759 535.155779 92.623116zM334.472362 689.527638c0 51.457286 0 77.18593-10.291457 118.351759-10.291457 20.582915-41.165829 25.728643-66.894472 20.582915L257.286432 190.39196c20.582915 0 41.165829 0 56.603015 10.291457C324.180905 205.829146 329.326633 216.120603 334.472362 226.41206c0 25.728643 0 56.603015 0 82.331658L334.472362 689.527638z" p-id="5844"></path><path d="M740.984925 20.582915 740.984925 20.582915l-128.643216 977.688442L874.773869 998.271357l15.437186-174.954774L977.688442 823.316583l15.437186 174.954774 257.286432 0-144.080402-977.688442L740.984925 20.582915zM885.065327 648.361809c5.145729-87.477387 20.582915-221.266332 46.311558-411.658291 15.437186 164.663317 25.728643 298.452261 41.165829 411.658291L885.065327 648.361809z" p-id="5845"></path><path d="M1523.135678 406.512563c-5.145729-66.894472-25.728643-195.537688-61.748744-385.929648l-231.557789 0 180.100503 622.633166 0 355.055276L1646.633166 998.271357l0-355.055276 185.246231-622.633166L1595.175879 20.582915C1559.155779 174.954774 1538.572864 303.59799 1523.135678 406.512563z" p-id="5846"></path></svg>