<?xml version="1.0" standalone="no"?><!DOCTYPE svg PUBLIC "-//W3C//DTD SVG 1.1//EN" "http://www.w3.org/Graphics/SVG/1.1/DTD/svg11.dtd"><svg t="1549611378392" class="icon" style="" viewBox="0 0 1024 1024" version="1.1" xmlns="http://www.w3.org/2000/svg" p-id="3698" xmlns:xlink="http://www.w3.org/1999/xlink" width="200" height="200"><defs><style type="text/css"></style></defs><path d="M481.226624 112.527866c131.700531 92.774987 190.231599 273.438673 131.700531 429.693436-68.286246 175.787632-263.390829 268.558525-443.868273 209.966059C276.36891 898.668527 481.226624 952.379822 651.941728 879.142821c199.98473-87.897909 292.660456-322.268798 204.866924-527.352663C793.394367 205.301829 642.188596 107.642602 481.226624 112.527866L481.226624 112.527866zM388.551922 122.289184c-29.27065-9.762341-34.143635-43.944861 4.872984-48.825009 204.867948-43.949978 424.358941 63.473637 507.281535 258.791068 102.428857 229.497904-4.881171 493.175259-229.247194 590.828346-224.37421 97.661274-487.765039-4.882194-590.193897-219.7284 0 0 0-19.533892 0-24.416086 19.508309-29.29521 63.405075 9.772574 87.794555 19.533892 156.078755 58.594513 336.557222-19.533892 395.08829-175.786609C627.562481 366.437763 544.639886 185.767937 388.551922 122.289184L388.551922 122.289184z" p-id="3699"></path></svg>